<svg width="42" height="810" viewBox="0 0 42 810" fill="none" xmlns="http://www.w3.org/2000/svg">
<path d="M26.9765 20.4L22.2976 25.0789L30.0645 32.8459L39.1416 23.7688L24.2627 8.88989L-13.9171 47.0697L24.2627 85.2495L38.2994 71.2128L30.0645 62.978L22.9526 70.0899L26.6957 73.833" stroke="#041C3A" stroke-width="3.93028"/>
<path d="M26.9765 100.503L22.2976 105.182L30.0645 112.949L39.1416 103.872L24.2627 88.9927L-13.9171 127.172L24.2627 165.352L38.2994 151.316L30.0645 143.081L22.9526 150.193L26.6957 153.936" stroke="#041C3A" stroke-width="3.93028"/>
<path d="M26.9765 180.606L22.2976 185.284L30.0645 193.051L39.1416 183.974L24.2627 169.095L-13.9171 207.275L24.2627 245.455L38.2994 231.418L30.0645 223.184L22.9526 230.295L26.6957 234.039" stroke="#041C3A" stroke-width="3.93028"/>
<path d="M-7.17959 20.4L-2.50069 25.0789L-10.2677 32.8459L-19.3447 23.7688L-4.46583 8.88989L33.714 47.0697L-4.46583 85.2495L-18.5025 71.2128L-10.2677 62.978L-3.15574 70.0899L-6.89886 73.833" stroke="#041C3A" stroke-width="3.93028"/>
<path d="M-7.17959 100.503L-2.50069 105.182L-10.2677 112.949L-19.3447 103.872L-4.46583 88.9927L33.714 127.172L-4.46583 165.352L-18.5025 151.316L-10.2677 143.081L-3.15574 150.193L-6.89886 153.936" stroke="#041C3A" stroke-width="3.93028"/>
<path d="M-7.17959 180.606L-2.50069 185.284L-10.2677 193.051L-19.3447 183.974L-4.46583 169.095L33.714 207.275L-4.46583 245.455L-18.5025 231.418L-10.2677 223.184L-3.15574 230.295L-6.89886 234.039" stroke="#041C3A" stroke-width="3.93028"/>
<path d="M9.38476 50.8171L5.63672 47.0691L9.38477 43.322L13.1318 47.0691L9.38476 50.8171Z" stroke="#041C3A" stroke-width="9.91927"/>
<path d="M9.38476 130.92L5.63672 127.172L9.38477 123.425L13.1318 127.172L9.38476 130.92Z" stroke="#041C3A" stroke-width="9.91927"/>
<path d="M9.38476 211.022L5.63672 207.274L9.38477 203.527L13.1318 207.274L9.38476 211.022Z" stroke="#041C3A" stroke-width="9.91927"/>
<mask id="path-10-inside-1_19_1891" fill="white">
<path d="M9.29025 -3.06782e-07L16.3086 7.01835L9.38382 13.756L2.45905 6.83119L9.29025 -3.06782e-07Z"/>
</mask>
<path d="M16.3086 7.01835L23.2258 14.1277L30.4333 7.11509L23.3226 0.00436754L16.3086 7.01835ZM9.29025 -3.06782e-07L16.3042 -7.01398L9.29025 -14.028L2.27626 -7.01398L9.29025 -3.06782e-07ZM2.45905 6.83119L-4.55493 -0.18279L-11.5689 6.83119L-4.55493 13.8452L2.45905 6.83119ZM9.38382 13.756L2.36984 20.7699L9.2884 27.6885L16.3011 20.8654L9.38382 13.756ZM23.3226 0.00436754L16.3042 -7.01398L2.27626 7.01398L9.29461 14.0323L23.3226 0.00436754ZM2.27626 -7.01398L-4.55493 -0.18279L9.47303 13.8452L16.3042 7.01398L2.27626 -7.01398ZM-4.55493 13.8452L2.36984 20.7699L16.3978 6.74198L9.47303 -0.182789L-4.55493 13.8452ZM16.3011 20.8654L23.2258 14.1277L9.39134 -0.0910479L2.46657 6.64657L16.3011 20.8654Z" fill="#041C3A" mask="url(#path-10-inside-1_19_1891)"/>
<mask id="path-12-inside-2_19_1891" fill="white">
<path d="M9.29025 80.1028L16.3086 87.1211L9.38382 93.8587L2.45905 86.934L9.29025 80.1028Z"/>
</mask>
<path d="M16.3086 87.1211L23.2258 94.2305L30.4333 87.2179L23.3226 80.1072L16.3086 87.1211ZM9.29025 80.1028L16.3042 73.0888L9.29025 66.0748L2.27626 73.0888L9.29025 80.1028ZM2.45905 86.934L-4.55493 79.92L-11.5689 86.934L-4.55493 93.948L2.45905 86.934ZM9.38382 93.8587L2.36984 100.873L9.2884 107.791L16.3011 100.968L9.38382 93.8587ZM23.3226 80.1072L16.3042 73.0888L2.27626 87.1168L9.29461 94.1351L23.3226 80.1072ZM2.27626 73.0888L-4.55493 79.92L9.47303 93.948L16.3042 87.1168L2.27626 73.0888ZM-4.55493 93.948L2.36984 100.873L16.3978 86.8448L9.47303 79.92L-4.55493 93.948ZM16.3011 100.968L23.2258 94.2305L9.39134 80.0117L2.46657 86.7493L16.3011 100.968Z" fill="#041C3A" mask="url(#path-12-inside-2_19_1891)"/>
<mask id="path-14-inside-3_19_1891" fill="white">
<path d="M9.29025 160.206L16.3086 167.224L9.38382 173.962L2.45905 167.037L9.29025 160.206Z"/>
</mask>
<path d="M16.3086 167.224L23.2258 174.333L30.4333 167.321L23.3226 160.21L16.3086 167.224ZM9.29025 160.206L16.3042 153.192L9.29025 146.178L2.27626 153.192L9.29025 160.206ZM2.45905 167.037L-4.55493 160.023L-11.5689 167.037L-4.55493 174.051L2.45905 167.037ZM9.38382 173.962L2.36984 180.976L9.2884 187.894L16.3011 181.071L9.38382 173.962ZM23.3226 160.21L16.3042 153.192L2.27626 167.22L9.29461 174.238L23.3226 160.21ZM2.27626 153.192L-4.55493 160.023L9.47303 174.051L16.3042 167.22L2.27626 153.192ZM-4.55493 174.051L2.36984 180.976L16.3978 166.948L9.47303 160.023L-4.55493 174.051ZM16.3011 181.071L23.2258 174.333L9.39134 160.115L2.46657 166.852L16.3011 181.071Z" fill="#041C3A" mask="url(#path-14-inside-3_19_1891)"/>
<mask id="path-16-inside-4_19_1891" fill="white">
<path d="M40.4517 13.943L40.4517 0.0935059L33.5269 7.01828L40.4517 13.943Z"/>
</mask>
<path d="M40.4517 0.0935059L50.3709 0.0935063L50.3709 -23.8537L33.4377 -6.92048L40.4517 0.0935059ZM40.4517 13.943L33.4377 20.957L50.3709 37.8903L50.3709 13.943L40.4517 13.943ZM33.5269 7.01828L26.5129 0.00429486L19.4989 7.01828L26.5129 14.0323L33.5269 7.01828ZM30.5324 0.0935054L30.5324 13.943L50.3709 13.943L50.3709 0.0935063L30.5324 0.0935054ZM47.4656 6.92907L40.5409 0.00429547L26.5129 14.0323L33.4377 20.957L47.4656 6.92907ZM40.5409 14.0323L47.4656 7.10749L33.4377 -6.92048L26.5129 0.00429486L40.5409 14.0323Z" fill="#041C3A" mask="url(#path-16-inside-4_19_1891)"/>
<mask id="path-18-inside-5_19_1891" fill="white">
<path d="M40.4517 94.0458L40.4517 80.1963L33.5269 87.1211L40.4517 94.0458Z"/>
</mask>
<path d="M40.4517 80.1963L50.3709 80.1963L50.3709 56.2491L33.4377 73.1823L40.4517 80.1963ZM40.4517 94.0458L33.4377 101.06L50.3709 117.993L50.3709 94.0458L40.4517 94.0458ZM33.5269 87.1211L26.5129 80.1071L19.4989 87.1211L26.5129 94.135L33.5269 87.1211ZM30.5324 80.1963L30.5324 94.0458L50.3709 94.0458L50.3709 80.1963L30.5324 80.1963ZM47.4656 87.0318L40.5409 80.1071L26.5129 94.135L33.4377 101.06L47.4656 87.0318ZM40.5409 94.135L47.4656 87.2103L33.4377 73.1823L26.5129 80.1071L40.5409 94.135Z" fill="#041C3A" mask="url(#path-18-inside-5_19_1891)"/>
<mask id="path-20-inside-6_19_1891" fill="white">
<path d="M40.4517 174.149L40.4517 160.299L33.5269 167.224L40.4517 174.149Z"/>
</mask>
<path d="M40.4517 160.299L50.3709 160.299L50.3709 136.352L33.4377 153.285L40.4517 160.299ZM40.4517 174.149L33.4377 181.163L50.3709 198.096L50.3709 174.149L40.4517 174.149ZM33.5269 167.224L26.5129 160.21L19.4989 167.224L26.5129 174.238L33.5269 167.224ZM30.5324 160.299L30.5324 174.149L50.3709 174.149L50.3709 160.299L30.5324 160.299ZM47.4656 167.135L40.5409 160.21L26.5129 174.238L33.4377 181.163L47.4656 167.135ZM40.5409 174.238L47.4656 167.313L33.4377 153.285L26.5129 160.21L40.5409 174.238Z" fill="#041C3A" mask="url(#path-20-inside-6_19_1891)"/>
<path d="M26.9765 419.978L22.2976 424.657L30.0645 432.424L39.1416 423.347L24.2627 408.468L-13.9171 446.648L24.2627 484.828L38.2994 470.791L30.0645 462.556L22.9526 469.668L26.6957 473.411" stroke="#041C3A" stroke-width="3.93028"/>
<path d="M26.9765 338.378L22.2976 343.057L30.0645 350.824L39.1416 341.747L24.2627 326.868L-13.9171 365.048L24.2627 403.228L38.2994 389.191L30.0645 380.956L22.9526 388.068L26.6957 391.811" stroke="#041C3A" stroke-width="3.93028"/>
<path d="M26.9765 256.965L22.2976 261.644L30.0645 269.411L39.1416 260.334L24.2627 245.455L-13.9171 283.635L24.2627 321.815L38.2994 307.778L30.0645 299.543L22.9526 306.655L26.6957 310.398" stroke="#041C3A" stroke-width="3.93028"/>
<path d="M26.9765 500.268L22.2976 504.947L30.0645 512.714L39.1416 503.637L24.2627 488.758L-13.9171 526.938L24.2627 565.117L38.2994 551.081L30.0645 542.846L22.9526 549.958L26.6957 553.701" stroke="#041C3A" stroke-width="3.93028"/>
<path d="M26.9765 581.4L22.2976 586.079L30.0645 593.846L39.1416 584.769L24.2627 569.89L-13.9171 608.07L24.2627 646.25L38.2994 632.213L30.0645 623.978L22.9526 631.09L26.6957 634.833" stroke="#041C3A" stroke-width="3.93028"/>
<path d="M26.9765 661.503L22.2976 666.182L30.0645 673.949L39.1416 664.872L24.2627 649.993L-13.9171 688.172L24.2627 726.352L38.2994 712.316L30.0645 704.081L22.9526 711.193L26.6957 714.936" stroke="#041C3A" stroke-width="3.93028"/>
<path d="M26.9765 741.606L22.2976 746.284L30.0645 754.051L39.1416 744.974L24.2627 730.095L-13.9171 768.275L24.2627 806.455L38.2994 792.418L30.0645 784.184L22.9526 791.295L26.6957 795.039" stroke="#041C3A" stroke-width="3.93028"/>
<path d="M-7.17959 419.978L-2.50069 424.657L-10.2677 432.424L-19.3447 423.347L-4.46583 408.468L33.714 446.648L-4.46583 484.828L-18.5025 470.791L-10.2677 462.556L-3.15574 469.668L-6.89886 473.411" stroke="#041C3A" stroke-width="3.93028"/>
<path d="M-7.17959 338.378L-2.50069 343.057L-10.2677 350.824L-19.3447 341.747L-4.46583 326.868L33.714 365.048L-4.46583 403.228L-18.5025 389.191L-10.2677 380.956L-3.15574 388.068L-6.89886 391.811" stroke="#041C3A" stroke-width="3.93028"/>
<path d="M-7.17959 256.965L-2.50069 261.644L-10.2677 269.411L-19.3447 260.334L-4.46583 245.455L33.714 283.635L-4.46583 321.815L-18.5025 307.778L-10.2677 299.543L-3.15574 306.655L-6.89886 310.398" stroke="#041C3A" stroke-width="3.93028"/>
<path d="M-7.17959 500.268L-2.50069 504.947L-10.2677 512.714L-19.3447 503.637L-4.46583 488.758L33.714 526.938L-4.46583 565.117L-18.5025 551.081L-10.2677 542.846L-3.15574 549.958L-6.89886 553.701" stroke="#041C3A" stroke-width="3.93028"/>
<path d="M-7.17959 581.4L-2.50069 586.079L-10.2677 593.846L-19.3447 584.769L-4.46583 569.89L33.714 608.07L-4.46583 646.25L-18.5025 632.213L-10.2677 623.978L-3.15574 631.09L-6.89886 634.833" stroke="#041C3A" stroke-width="3.93028"/>
<path d="M-7.17959 661.503L-2.50069 666.182L-10.2677 673.949L-19.3447 664.872L-4.46583 649.993L33.714 688.172L-4.46583 726.352L-18.5025 712.316L-10.2677 704.081L-3.15574 711.193L-6.89886 714.936" stroke="#041C3A" stroke-width="3.93028"/>
<path d="M-7.17959 741.606L-2.50069 746.284L-10.2677 754.051L-19.3447 744.974L-4.46583 730.095L33.714 768.275L-4.46583 806.455L-18.5025 792.418L-10.2677 784.184L-3.15574 791.295L-6.89886 795.039" stroke="#041C3A" stroke-width="3.93028"/>
<path d="M9.38428 450.395L5.63623 446.647L9.38428 442.9L13.1313 446.647L9.38428 450.395Z" stroke="#041C3A" stroke-width="9.91927"/>
<path d="M9.38428 368.795L5.63623 365.047L9.38428 361.3L13.1313 365.047L9.38428 368.795Z" stroke="#041C3A" stroke-width="9.91927"/>
<path d="M9.38428 287.382L5.63623 283.634L9.38428 279.887L13.1313 283.634L9.38428 287.382Z" stroke="#041C3A" stroke-width="9.91927"/>
<path d="M9.38428 530.685L5.63623 526.937L9.38428 523.19L13.1313 526.937L9.38428 530.685Z" stroke="#041C3A" stroke-width="9.91927"/>
<path d="M9.38428 611.817L5.63623 608.069L9.38428 604.322L13.1313 608.069L9.38428 611.817Z" stroke="#041C3A" stroke-width="9.91927"/>
<path d="M9.38428 691.92L5.63623 688.172L9.38428 684.425L13.1313 688.172L9.38428 691.92Z" stroke="#041C3A" stroke-width="9.91927"/>
<path d="M9.38428 772.022L5.63623 768.274L9.38428 764.527L13.1313 768.274L9.38428 772.022Z" stroke="#041C3A" stroke-width="9.91927"/>
<mask id="path-43-inside-7_19_1891" fill="white">
<path d="M9.29025 479.868L16.3086 486.886L9.38382 493.624L2.45905 486.699L9.29025 479.868Z"/>
</mask>
<path d="M16.3086 486.886L23.2258 493.996L30.4333 486.983L23.3226 479.872L16.3086 486.886ZM9.29025 479.868L16.3042 472.854L9.29025 465.84L2.27626 472.854L9.29025 479.868ZM2.45905 486.699L-4.55493 479.685L-11.5689 486.699L-4.55493 493.713L2.45905 486.699ZM9.38382 493.624L2.36984 500.638L9.2884 507.556L16.3011 500.733L9.38382 493.624ZM23.3226 479.872L16.3042 472.854L2.27626 486.882L9.29461 493.9L23.3226 479.872ZM2.27626 472.854L-4.55493 479.685L9.47303 493.713L16.3042 486.882L2.27626 472.854ZM-4.55493 493.713L2.36984 500.638L16.3978 486.61L9.47303 479.685L-4.55493 493.713ZM16.3011 500.733L23.2258 493.996L9.39134 479.777L2.46657 486.514L16.3011 500.733Z" fill="#041C3A" mask="url(#path-43-inside-7_19_1891)"/>
<mask id="path-45-inside-8_19_1891" fill="white">
<path d="M9.29025 561L16.3086 568.018L9.38382 574.756L2.45905 567.831L9.29025 561Z"/>
</mask>
<path d="M16.3086 568.018L23.2258 575.128L30.4333 568.115L23.3226 561.004L16.3086 568.018ZM9.29025 561L16.3042 553.986L9.29025 546.972L2.27626 553.986L9.29025 561ZM2.45905 567.831L-4.55493 560.817L-11.5689 567.831L-4.55493 574.845L2.45905 567.831ZM9.38382 574.756L2.36984 581.77L9.2884 588.688L16.3011 581.865L9.38382 574.756ZM23.3226 561.004L16.3042 553.986L2.27626 568.014L9.29461 575.032L23.3226 561.004ZM2.27626 553.986L-4.55493 560.817L9.47303 574.845L16.3042 568.014L2.27626 553.986ZM-4.55493 574.845L2.36984 581.77L16.3978 567.742L9.47303 560.817L-4.55493 574.845ZM16.3011 581.865L23.2258 575.128L9.39134 560.909L2.46657 567.647L16.3011 581.865Z" fill="#041C3A" mask="url(#path-45-inside-8_19_1891)"/>
<mask id="path-47-inside-9_19_1891" fill="white">
<path d="M9.29025 641.103L16.3086 648.121L9.38382 654.859L2.45905 647.934L9.29025 641.103Z"/>
</mask>
<path d="M16.3086 648.121L23.2258 655.231L30.4333 648.218L23.3226 641.107L16.3086 648.121ZM9.29025 641.103L16.3042 634.089L9.29025 627.075L2.27626 634.089L9.29025 641.103ZM2.45905 647.934L-4.55493 640.92L-11.5689 647.934L-4.55493 654.948L2.45905 647.934ZM9.38382 654.859L2.36984 661.873L9.2884 668.791L16.3011 661.968L9.38382 654.859ZM23.3226 641.107L16.3042 634.089L2.27626 648.117L9.29461 655.135L23.3226 641.107ZM2.27626 634.089L-4.55493 640.92L9.47303 654.948L16.3042 648.117L2.27626 634.089ZM-4.55493 654.948L2.36984 661.873L16.3978 647.845L9.47303 640.92L-4.55493 654.948ZM16.3011 661.968L23.2258 655.231L9.39134 641.012L2.46657 647.749L16.3011 661.968Z" fill="#041C3A" mask="url(#path-47-inside-9_19_1891)"/>
<mask id="path-49-inside-10_19_1891" fill="white">
<path d="M9.29025 721.206L16.3086 728.224L9.38382 734.962L2.45905 728.037L9.29025 721.206Z"/>
</mask>
<path d="M16.3086 728.224L23.2258 735.333L30.4333 728.321L23.3226 721.21L16.3086 728.224ZM9.29025 721.206L16.3042 714.192L9.29025 707.178L2.27626 714.192L9.29025 721.206ZM2.45905 728.037L-4.55493 721.023L-11.5689 728.037L-4.55493 735.051L2.45905 728.037ZM9.38382 734.962L2.36984 741.976L9.2884 748.894L16.3011 742.071L9.38382 734.962ZM23.3226 721.21L16.3042 714.192L2.27626 728.22L9.29461 735.238L23.3226 721.21ZM2.27626 714.192L-4.55493 721.023L9.47303 735.051L16.3042 728.22L2.27626 714.192ZM-4.55493 735.051L2.36984 741.976L16.3978 727.948L9.47303 721.023L-4.55493 735.051ZM16.3011 742.071L23.2258 735.333L9.39134 721.115L2.46657 727.852L16.3011 742.071Z" fill="#041C3A" mask="url(#path-49-inside-10_19_1891)"/>
<mask id="path-51-inside-11_19_1891" fill="white">
<path d="M9.29025 398.268L16.3086 405.286L9.38382 412.024L2.45905 405.099L9.29025 398.268Z"/>
</mask>
<path d="M16.3086 405.286L23.2258 412.396L30.4333 405.383L23.3226 398.272L16.3086 405.286ZM9.29025 398.268L16.3042 391.254L9.29025 384.24L2.27626 391.254L9.29025 398.268ZM2.45905 405.099L-4.55493 398.085L-11.5689 405.099L-4.55493 412.113L2.45905 405.099ZM9.38382 412.024L2.36984 419.038L9.2884 425.956L16.3011 419.133L9.38382 412.024ZM23.3226 398.272L16.3042 391.254L2.27626 405.282L9.29461 412.3L23.3226 398.272ZM2.27626 391.254L-4.55493 398.085L9.47303 412.113L16.3042 405.282L2.27626 391.254ZM-4.55493 412.113L2.36984 419.038L16.3978 405.01L9.47303 398.085L-4.55493 412.113ZM16.3011 419.133L23.2258 412.396L9.39134 398.177L2.46657 404.914L16.3011 419.133Z" fill="#041C3A" mask="url(#path-51-inside-11_19_1891)"/>
<mask id="path-53-inside-12_19_1891" fill="white">
<path d="M9.29025 316.855L16.3086 323.873L9.38382 330.611L2.45905 323.686L9.29025 316.855Z"/>
</mask>
<path d="M16.3086 323.873L23.2258 330.983L30.4333 323.97L23.3226 316.859L16.3086 323.873ZM9.29025 316.855L16.3042 309.841L9.29025 302.827L2.27626 309.841L9.29025 316.855ZM2.45905 323.686L-4.55493 316.672L-11.5689 323.686L-4.55493 330.7L2.45905 323.686ZM9.38382 330.611L2.36984 337.625L9.2884 344.543L16.3011 337.72L9.38382 330.611ZM23.3226 316.859L16.3042 309.841L2.27626 323.869L9.29461 330.887L23.3226 316.859ZM2.27626 309.841L-4.55493 316.672L9.47303 330.7L16.3042 323.869L2.27626 309.841ZM-4.55493 330.7L2.36984 337.625L16.3978 323.597L9.47303 316.672L-4.55493 330.7ZM16.3011 337.72L23.2258 330.983L9.39134 316.764L2.46657 323.502L16.3011 337.72Z" fill="#041C3A" mask="url(#path-53-inside-12_19_1891)"/>
<mask id="path-55-inside-13_19_1891" fill="white">
<path d="M40.4512 493.811L40.4512 479.961L33.5264 486.886L40.4512 493.811Z"/>
</mask>
<path d="M40.4512 479.961L50.3704 479.961L50.3704 456.014L33.4372 472.947L40.4512 479.961ZM40.4512 493.811L33.4372 500.825L50.3704 517.758L50.3704 493.811L40.4512 493.811ZM33.5264 486.886L26.5124 479.872L19.4984 486.886L26.5124 493.9L33.5264 486.886ZM30.5319 479.961L30.5319 493.811L50.3704 493.811L50.3704 479.961L30.5319 479.961ZM47.4652 486.797L40.5404 479.872L26.5124 493.9L33.4372 500.825L47.4652 486.797ZM40.5404 493.9L47.4652 486.975L33.4372 472.947L26.5124 479.872L40.5404 493.9Z" fill="#041C3A" mask="url(#path-55-inside-13_19_1891)"/>
<mask id="path-57-inside-14_19_1891" fill="white">
<path d="M40.4512 574.943L40.4512 561.094L33.5264 568.018L40.4512 574.943Z"/>
</mask>
<path d="M40.4512 561.094L50.3704 561.094L50.3704 537.146L33.4372 554.08L40.4512 561.094ZM40.4512 574.943L33.4372 581.957L50.3704 598.89L50.3704 574.943L40.4512 574.943ZM33.5264 568.018L26.5124 561.004L19.4984 568.018L26.5124 575.032L33.5264 568.018ZM30.5319 561.094L30.5319 574.943L50.3704 574.943L50.3704 561.094L30.5319 561.094ZM47.4652 567.929L40.5404 561.004L26.5124 575.032L33.4372 581.957L47.4652 567.929ZM40.5404 575.032L47.4652 568.107L33.4372 554.08L26.5124 561.004L40.5404 575.032Z" fill="#041C3A" mask="url(#path-57-inside-14_19_1891)"/>
<mask id="path-59-inside-15_19_1891" fill="white">
<path d="M40.4512 655.046L40.4512 641.196L33.5264 648.121L40.4512 655.046Z"/>
</mask>
<path d="M40.4512 641.196L50.3704 641.196L50.3704 617.249L33.4372 634.182L40.4512 641.196ZM40.4512 655.046L33.4372 662.06L50.3704 678.993L50.3704 655.046L40.4512 655.046ZM33.5264 648.121L26.5124 641.107L19.4984 648.121L26.5124 655.135L33.5264 648.121ZM30.5319 641.196L30.5319 655.046L50.3704 655.046L50.3704 641.196L30.5319 641.196ZM47.4652 648.032L40.5404 641.107L26.5124 655.135L33.4372 662.06L47.4652 648.032ZM40.5404 655.135L47.4652 648.21L33.4372 634.182L26.5124 641.107L40.5404 655.135Z" fill="#041C3A" mask="url(#path-59-inside-15_19_1891)"/>
<mask id="path-61-inside-16_19_1891" fill="white">
<path d="M40.4512 735.149L40.4512 721.299L33.5264 728.224L40.4512 735.149Z"/>
</mask>
<path d="M40.4512 721.299L50.3704 721.299L50.3704 697.352L33.4372 714.285L40.4512 721.299ZM40.4512 735.149L33.4372 742.163L50.3704 759.096L50.3704 735.149L40.4512 735.149ZM33.5264 728.224L26.5124 721.21L19.4984 728.224L26.5124 735.238L33.5264 728.224ZM30.5319 721.299L30.5319 735.149L50.3704 735.149L50.3704 721.299L30.5319 721.299ZM47.4652 728.135L40.5404 721.21L26.5124 735.238L33.4372 742.163L47.4652 728.135ZM40.5404 735.238L47.4652 728.313L33.4372 714.285L26.5124 721.21L40.5404 735.238Z" fill="#041C3A" mask="url(#path-61-inside-16_19_1891)"/>
<mask id="path-63-inside-17_19_1891" fill="white">
<path d="M40.4517 412.211L40.4517 398.362L33.5269 405.286L40.4517 412.211Z"/>
</mask>
<path d="M40.4517 398.362L50.3709 398.362L50.3709 374.414L33.4377 391.348L40.4517 398.362ZM40.4517 412.211L33.4377 419.225L50.3709 436.158L50.3709 412.211L40.4517 412.211ZM33.5269 405.286L26.5129 398.272L19.4989 405.286L26.5129 412.3L33.5269 405.286ZM30.5324 398.362L30.5324 412.211L50.3709 412.211L50.3709 398.362L30.5324 398.362ZM47.4656 405.197L40.5409 398.272L26.5129 412.3L33.4377 419.225L47.4656 405.197ZM40.5409 412.3L47.4656 405.376L33.4377 391.348L26.5129 398.272L40.5409 412.3Z" fill="#041C3A" mask="url(#path-63-inside-17_19_1891)"/>
<mask id="path-65-inside-18_19_1891" fill="white">
<path d="M40.4517 330.798L40.4517 316.949L33.5269 323.874L40.4517 330.798Z"/>
</mask>
<path d="M40.4517 316.949L50.3709 316.949L50.3709 293.002L33.4377 309.935L40.4517 316.949ZM40.4517 330.798L33.4377 337.812L50.3709 354.745L50.3709 330.798L40.4517 330.798ZM33.5269 323.874L26.5129 316.86L19.4989 323.873L26.5129 330.887L33.5269 323.874ZM30.5324 316.949L30.5324 330.798L50.3709 330.798L50.3709 316.949L30.5324 316.949ZM47.4656 323.784L40.5409 316.86L26.5129 330.887L33.4377 337.812L47.4656 323.784ZM40.5409 330.887L47.4656 323.963L33.4377 309.935L26.5129 316.86L40.5409 330.887Z" fill="#041C3A" mask="url(#path-65-inside-18_19_1891)"/>
</svg>
