<svg width="41" height="810" viewBox="0 0 41 810" fill="none" xmlns="http://www.w3.org/2000/svg">
<path d="M49.9765 20.4L45.2976 25.0789L53.0645 32.8459L62.1416 23.7688L47.2627 8.88989L9.08289 47.0697L47.2627 85.2495L61.2994 71.2128L53.0645 62.978L45.9526 70.0899L49.6957 73.833" stroke="#041C3A" stroke-width="3.93028"/>
<path d="M49.9765 100.503L45.2976 105.182L53.0645 112.949L62.1416 103.872L47.2627 88.9927L9.08289 127.172L47.2627 165.352L61.2994 151.316L53.0645 143.081L45.9526 150.193L49.6957 153.936" stroke="#041C3A" stroke-width="3.93028"/>
<path d="M49.9765 180.606L45.2976 185.284L53.0645 193.051L62.1416 183.974L47.2627 169.095L9.08289 207.275L47.2627 245.455L61.2994 231.418L53.0645 223.184L45.9526 230.295L49.6957 234.039" stroke="#041C3A" stroke-width="3.93028"/>
<path d="M15.8204 20.4L20.4993 25.0789L12.7323 32.8459L3.65527 23.7688L18.5342 8.88989L56.714 47.0697L18.5342 85.2495L4.49747 71.2128L12.7323 62.978L19.8443 70.0899L16.1011 73.833" stroke="#041C3A" stroke-width="3.93028"/>
<path d="M15.8204 100.503L20.4993 105.182L12.7323 112.949L3.65527 103.872L18.5342 88.9927L56.714 127.172L18.5342 165.352L4.49747 151.316L12.7323 143.081L19.8443 150.193L16.1011 153.936" stroke="#041C3A" stroke-width="3.93028"/>
<path d="M15.8204 180.606L20.4993 185.284L12.7323 193.051L3.65527 183.974L18.5342 169.095L56.714 207.275L18.5342 245.455L4.49747 231.418L12.7323 223.184L19.8443 230.295L16.1011 234.039" stroke="#041C3A" stroke-width="3.93028"/>
<path d="M32.3848 50.8171L28.6367 47.0691L32.3848 43.322L36.1318 47.0691L32.3848 50.8171Z" stroke="#041C3A" stroke-width="9.91927"/>
<path d="M32.3848 130.92L28.6367 127.172L32.3848 123.425L36.1318 127.172L32.3848 130.92Z" stroke="#041C3A" stroke-width="9.91927"/>
<path d="M32.3848 211.022L28.6367 207.274L32.3848 203.527L36.1318 207.274L32.3848 211.022Z" stroke="#041C3A" stroke-width="9.91927"/>
<mask id="path-10-inside-1_19_1890" fill="white">
<path d="M32.2902 -3.06782e-07L39.3086 7.01835L32.3838 13.756L25.4591 6.83119L32.2902 -3.06782e-07Z"/>
</mask>
<path d="M39.3086 7.01835L46.2258 14.1277L53.4333 7.11509L46.3226 0.00436754L39.3086 7.01835ZM32.2902 -3.06782e-07L39.3042 -7.01398L32.2902 -14.028L25.2763 -7.01398L32.2902 -3.06782e-07ZM25.4591 6.83119L18.4451 -0.18279L11.4311 6.83119L18.4451 13.8452L25.4591 6.83119ZM32.3838 13.756L25.3698 20.7699L32.2884 27.6885L39.3011 20.8654L32.3838 13.756ZM46.3226 0.00436754L39.3042 -7.01398L25.2763 7.01398L32.2946 14.0323L46.3226 0.00436754ZM25.2763 -7.01398L18.4451 -0.18279L32.473 13.8452L39.3042 7.01398L25.2763 -7.01398ZM18.4451 13.8452L25.3698 20.7699L39.3978 6.74198L32.473 -0.182789L18.4451 13.8452ZM39.3011 20.8654L46.2258 14.1277L32.3913 -0.0910479L25.4666 6.64657L39.3011 20.8654Z" fill="#041C3A" mask="url(#path-10-inside-1_19_1890)"/>
<mask id="path-12-inside-2_19_1890" fill="white">
<path d="M32.2902 80.1028L39.3086 87.1211L32.3838 93.8587L25.4591 86.934L32.2902 80.1028Z"/>
</mask>
<path d="M39.3086 87.1211L46.2258 94.2305L53.4333 87.2179L46.3226 80.1072L39.3086 87.1211ZM32.2902 80.1028L39.3042 73.0888L32.2902 66.0748L25.2763 73.0888L32.2902 80.1028ZM25.4591 86.934L18.4451 79.92L11.4311 86.934L18.4451 93.948L25.4591 86.934ZM32.3838 93.8587L25.3698 100.873L32.2884 107.791L39.3011 100.968L32.3838 93.8587ZM46.3226 80.1072L39.3042 73.0888L25.2763 87.1168L32.2946 94.1351L46.3226 80.1072ZM25.2763 73.0888L18.4451 79.92L32.473 93.948L39.3042 87.1168L25.2763 73.0888ZM18.4451 93.948L25.3698 100.873L39.3978 86.8448L32.473 79.92L18.4451 93.948ZM39.3011 100.968L46.2258 94.2305L32.3913 80.0117L25.4666 86.7493L39.3011 100.968Z" fill="#041C3A" mask="url(#path-12-inside-2_19_1890)"/>
<mask id="path-14-inside-3_19_1890" fill="white">
<path d="M32.2902 160.206L39.3086 167.224L32.3838 173.962L25.4591 167.037L32.2902 160.206Z"/>
</mask>
<path d="M39.3086 167.224L46.2258 174.333L53.4333 167.321L46.3226 160.21L39.3086 167.224ZM32.2902 160.206L39.3042 153.192L32.2902 146.178L25.2763 153.192L32.2902 160.206ZM25.4591 167.037L18.4451 160.023L11.4311 167.037L18.4451 174.051L25.4591 167.037ZM32.3838 173.962L25.3698 180.976L32.2884 187.894L39.3011 181.071L32.3838 173.962ZM46.3226 160.21L39.3042 153.192L25.2763 167.22L32.2946 174.238L46.3226 160.21ZM25.2763 153.192L18.4451 160.023L32.473 174.051L39.3042 167.22L25.2763 153.192ZM18.4451 174.051L25.3698 180.976L39.3978 166.948L32.473 160.023L18.4451 174.051ZM39.3011 181.071L46.2258 174.333L32.3913 160.115L25.4666 166.852L39.3011 181.071Z" fill="#041C3A" mask="url(#path-14-inside-3_19_1890)"/>
<mask id="path-16-inside-4_19_1890" fill="white">
<path d="M3 13.943L3 0.0935059L9.92477 7.01828L3 13.943Z"/>
</mask>
<path d="M3 0.0935059L-6.91927 0.0935054L-6.91927 -23.8537L10.014 -6.92047L3 0.0935059ZM3 13.943L10.014 20.957L-6.91927 37.8903L-6.91927 13.943L3 13.943ZM9.92477 7.01828L16.9388 0.00429608L23.9527 7.01828L16.9388 14.0323L9.92477 7.01828ZM12.9193 0.0935063L12.9193 13.943L-6.91927 13.943L-6.91927 0.0935054L12.9193 0.0935063ZM-4.01398 6.92907L2.91079 0.00429546L16.9388 14.0323L10.014 20.957L-4.01398 6.92907ZM2.91079 14.0323L-4.01398 7.10749L10.014 -6.92047L16.9388 0.00429608L2.91079 14.0323Z" fill="#041C3A" mask="url(#path-16-inside-4_19_1890)"/>
<mask id="path-18-inside-5_19_1890" fill="white">
<path d="M3 94.0458L3 80.1963L9.92477 87.1211L3 94.0458Z"/>
</mask>
<path d="M3 80.1963L-6.91927 80.1963L-6.91927 56.2491L10.014 73.1823L3 80.1963ZM3 94.0458L10.014 101.06L-6.91927 117.993L-6.91927 94.0458L3 94.0458ZM9.92477 87.1211L16.9388 80.1071L23.9527 87.1211L16.9388 94.135L9.92477 87.1211ZM12.9193 80.1963L12.9193 94.0458L-6.91927 94.0458L-6.91927 80.1963L12.9193 80.1963ZM-4.01398 87.0318L2.91079 80.1071L16.9388 94.135L10.014 101.06L-4.01398 87.0318ZM2.91079 94.135L-4.01398 87.2103L10.014 73.1823L16.9388 80.1071L2.91079 94.135Z" fill="#041C3A" mask="url(#path-18-inside-5_19_1890)"/>
<mask id="path-20-inside-6_19_1890" fill="white">
<path d="M3 174.149L3 160.299L9.92477 167.224L3 174.149Z"/>
</mask>
<path d="M3 160.299L-6.91927 160.299L-6.91927 136.352L10.014 153.285L3 160.299ZM3 174.149L10.014 181.163L-6.91927 198.096L-6.91927 174.149L3 174.149ZM9.92477 167.224L16.9388 160.21L23.9527 167.224L16.9388 174.238L9.92477 167.224ZM12.9193 160.299L12.9193 174.149L-6.91927 174.149L-6.91927 160.299L12.9193 160.299ZM-4.01398 167.135L2.91079 160.21L16.9388 174.238L10.014 181.163L-4.01398 167.135ZM2.91079 174.238L-4.01398 167.313L10.014 153.285L16.9388 160.21L2.91079 174.238Z" fill="#041C3A" mask="url(#path-20-inside-6_19_1890)"/>
<path d="M49.9765 419.978L45.2976 424.657L53.0645 432.424L62.1416 423.347L47.2627 408.468L9.08289 446.648L47.2627 484.828L61.2994 470.791L53.0645 462.556L45.9526 469.668L49.6957 473.411" stroke="#041C3A" stroke-width="3.93028"/>
<path d="M49.9765 338.378L45.2976 343.057L53.0645 350.824L62.1416 341.747L47.2627 326.868L9.08289 365.048L47.2627 403.228L61.2994 389.191L53.0645 380.956L45.9526 388.068L49.6957 391.811" stroke="#041C3A" stroke-width="3.93028"/>
<path d="M49.9765 256.965L45.2976 261.644L53.0645 269.411L62.1416 260.334L47.2627 245.455L9.08289 283.635L47.2627 321.815L61.2994 307.778L53.0645 299.543L45.9526 306.655L49.6957 310.398" stroke="#041C3A" stroke-width="3.93028"/>
<path d="M49.9765 500.268L45.2976 504.947L53.0645 512.714L62.1416 503.637L47.2627 488.758L9.08289 526.938L47.2627 565.117L61.2994 551.081L53.0645 542.846L45.9526 549.958L49.6957 553.701" stroke="#041C3A" stroke-width="3.93028"/>
<path d="M49.9765 581.4L45.2976 586.079L53.0645 593.846L62.1416 584.769L47.2627 569.89L9.08289 608.07L47.2627 646.25L61.2994 632.213L53.0645 623.978L45.9526 631.09L49.6957 634.833" stroke="#041C3A" stroke-width="3.93028"/>
<path d="M49.9765 661.503L45.2976 666.182L53.0645 673.949L62.1416 664.872L47.2627 649.993L9.08289 688.172L47.2627 726.352L61.2994 712.316L53.0645 704.081L45.9526 711.193L49.6957 714.936" stroke="#041C3A" stroke-width="3.93028"/>
<path d="M49.9765 741.606L45.2976 746.284L53.0645 754.051L62.1416 744.974L47.2627 730.095L9.08289 768.275L47.2627 806.455L61.2994 792.418L53.0645 784.184L45.9526 791.295L49.6957 795.039" stroke="#041C3A" stroke-width="3.93028"/>
<path d="M15.8199 419.978L20.4988 424.657L12.7318 432.424L3.65478 423.347L18.5337 408.468L56.7135 446.648L18.5337 484.828L4.49698 470.791L12.7318 462.556L19.8438 469.668L16.1007 473.411" stroke="#041C3A" stroke-width="3.93028"/>
<path d="M15.8204 338.378L20.4993 343.057L12.7323 350.824L3.65527 341.747L18.5342 326.868L56.714 365.048L18.5342 403.228L4.49747 389.191L12.7323 380.956L19.8443 388.068L16.1011 391.811" stroke="#041C3A" stroke-width="3.93028"/>
<path d="M15.8204 256.965L20.4993 261.644L12.7323 269.411L3.65527 260.334L18.5342 245.455L56.714 283.635L18.5342 321.815L4.49747 307.778L12.7323 299.543L19.8443 306.655L16.1011 310.398" stroke="#041C3A" stroke-width="3.93028"/>
<path d="M15.8199 500.268L20.4988 504.947L12.7318 512.714L3.65478 503.637L18.5337 488.758L56.7135 526.938L18.5337 565.117L4.49698 551.081L12.7318 542.846L19.8438 549.958L16.1007 553.701" stroke="#041C3A" stroke-width="3.93028"/>
<path d="M15.8199 581.4L20.4988 586.079L12.7318 593.846L3.65478 584.769L18.5337 569.89L56.7135 608.07L18.5337 646.25L4.49698 632.213L12.7318 623.978L19.8438 631.09L16.1007 634.833" stroke="#041C3A" stroke-width="3.93028"/>
<path d="M15.8199 661.503L20.4988 666.182L12.7318 673.949L3.65478 664.872L18.5337 649.993L56.7135 688.172L18.5337 726.352L4.49698 712.316L12.7318 704.081L19.8438 711.193L16.1007 714.936" stroke="#041C3A" stroke-width="3.93028"/>
<path d="M15.8199 741.606L20.4988 746.284L12.7318 754.051L3.65478 744.974L18.5337 730.095L56.7135 768.275L18.5337 806.455L4.49698 792.418L12.7318 784.184L19.8438 791.295L16.1007 795.039" stroke="#041C3A" stroke-width="3.93028"/>
<path d="M32.3843 450.395L28.6362 446.647L32.3843 442.9L36.1313 446.647L32.3843 450.395Z" stroke="#041C3A" stroke-width="9.91927"/>
<path d="M32.3843 368.795L28.6362 365.047L32.3843 361.3L36.1313 365.047L32.3843 368.795Z" stroke="#041C3A" stroke-width="9.91927"/>
<path d="M32.3843 287.382L28.6362 283.634L32.3843 279.887L36.1313 283.634L32.3843 287.382Z" stroke="#041C3A" stroke-width="9.91927"/>
<path d="M32.3843 530.685L28.6362 526.937L32.3843 523.19L36.1313 526.937L32.3843 530.685Z" stroke="#041C3A" stroke-width="9.91927"/>
<path d="M32.3843 611.817L28.6362 608.069L32.3843 604.322L36.1313 608.069L32.3843 611.817Z" stroke="#041C3A" stroke-width="9.91927"/>
<path d="M32.3843 691.92L28.6362 688.172L32.3843 684.425L36.1313 688.172L32.3843 691.92Z" stroke="#041C3A" stroke-width="9.91927"/>
<path d="M32.3843 772.022L28.6362 768.274L32.3843 764.527L36.1313 768.274L32.3843 772.022Z" stroke="#041C3A" stroke-width="9.91927"/>
<mask id="path-43-inside-7_19_1890" fill="white">
<path d="M32.2902 479.868L39.3086 486.886L32.3838 493.624L25.4591 486.699L32.2902 479.868Z"/>
</mask>
<path d="M39.3086 486.886L46.2258 493.996L53.4333 486.983L46.3226 479.872L39.3086 486.886ZM32.2902 479.868L39.3042 472.854L32.2902 465.84L25.2763 472.854L32.2902 479.868ZM25.4591 486.699L18.4451 479.685L11.4311 486.699L18.4451 493.713L25.4591 486.699ZM32.3838 493.624L25.3698 500.638L32.2884 507.556L39.3011 500.733L32.3838 493.624ZM46.3226 479.872L39.3042 472.854L25.2763 486.882L32.2946 493.9L46.3226 479.872ZM25.2763 472.854L18.4451 479.685L32.473 493.713L39.3042 486.882L25.2763 472.854ZM18.4451 493.713L25.3698 500.638L39.3978 486.61L32.473 479.685L18.4451 493.713ZM39.3011 500.733L46.2258 493.996L32.3913 479.777L25.4666 486.514L39.3011 500.733Z" fill="#041C3A" mask="url(#path-43-inside-7_19_1890)"/>
<mask id="path-45-inside-8_19_1890" fill="white">
<path d="M32.2902 561L39.3086 568.018L32.3838 574.756L25.4591 567.831L32.2902 561Z"/>
</mask>
<path d="M39.3086 568.018L46.2258 575.128L53.4333 568.115L46.3226 561.004L39.3086 568.018ZM32.2902 561L39.3042 553.986L32.2902 546.972L25.2763 553.986L32.2902 561ZM25.4591 567.831L18.4451 560.817L11.4311 567.831L18.4451 574.845L25.4591 567.831ZM32.3838 574.756L25.3698 581.77L32.2884 588.688L39.3011 581.865L32.3838 574.756ZM46.3226 561.004L39.3042 553.986L25.2763 568.014L32.2946 575.032L46.3226 561.004ZM25.2763 553.986L18.4451 560.817L32.473 574.845L39.3042 568.014L25.2763 553.986ZM18.4451 574.845L25.3698 581.77L39.3978 567.742L32.473 560.817L18.4451 574.845ZM39.3011 581.865L46.2258 575.128L32.3913 560.909L25.4666 567.647L39.3011 581.865Z" fill="#041C3A" mask="url(#path-45-inside-8_19_1890)"/>
<mask id="path-47-inside-9_19_1890" fill="white">
<path d="M32.2902 641.103L39.3086 648.121L32.3838 654.859L25.4591 647.934L32.2902 641.103Z"/>
</mask>
<path d="M39.3086 648.121L46.2258 655.231L53.4333 648.218L46.3226 641.107L39.3086 648.121ZM32.2902 641.103L39.3042 634.089L32.2902 627.075L25.2763 634.089L32.2902 641.103ZM25.4591 647.934L18.4451 640.92L11.4311 647.934L18.4451 654.948L25.4591 647.934ZM32.3838 654.859L25.3698 661.873L32.2884 668.791L39.3011 661.968L32.3838 654.859ZM46.3226 641.107L39.3042 634.089L25.2763 648.117L32.2946 655.135L46.3226 641.107ZM25.2763 634.089L18.4451 640.92L32.473 654.948L39.3042 648.117L25.2763 634.089ZM18.4451 654.948L25.3698 661.873L39.3978 647.845L32.473 640.92L18.4451 654.948ZM39.3011 661.968L46.2258 655.231L32.3913 641.012L25.4666 647.749L39.3011 661.968Z" fill="#041C3A" mask="url(#path-47-inside-9_19_1890)"/>
<mask id="path-49-inside-10_19_1890" fill="white">
<path d="M32.2902 721.206L39.3086 728.224L32.3838 734.962L25.4591 728.037L32.2902 721.206Z"/>
</mask>
<path d="M39.3086 728.224L46.2258 735.333L53.4333 728.321L46.3226 721.21L39.3086 728.224ZM32.2902 721.206L39.3042 714.192L32.2902 707.178L25.2763 714.192L32.2902 721.206ZM25.4591 728.037L18.4451 721.023L11.4311 728.037L18.4451 735.051L25.4591 728.037ZM32.3838 734.962L25.3698 741.976L32.2884 748.894L39.3011 742.071L32.3838 734.962ZM46.3226 721.21L39.3042 714.192L25.2763 728.22L32.2946 735.238L46.3226 721.21ZM25.2763 714.192L18.4451 721.023L32.473 735.051L39.3042 728.22L25.2763 714.192ZM18.4451 735.051L25.3698 741.976L39.3978 727.948L32.473 721.023L18.4451 735.051ZM39.3011 742.071L46.2258 735.333L32.3913 721.115L25.4666 727.852L39.3011 742.071Z" fill="#041C3A" mask="url(#path-49-inside-10_19_1890)"/>
<mask id="path-51-inside-11_19_1890" fill="white">
<path d="M32.2902 398.268L39.3086 405.286L32.3838 412.024L25.4591 405.099L32.2902 398.268Z"/>
</mask>
<path d="M39.3086 405.286L46.2258 412.396L53.4333 405.383L46.3226 398.272L39.3086 405.286ZM32.2902 398.268L39.3042 391.254L32.2902 384.24L25.2763 391.254L32.2902 398.268ZM25.4591 405.099L18.4451 398.085L11.4311 405.099L18.4451 412.113L25.4591 405.099ZM32.3838 412.024L25.3698 419.038L32.2884 425.956L39.3011 419.133L32.3838 412.024ZM46.3226 398.272L39.3042 391.254L25.2763 405.282L32.2946 412.3L46.3226 398.272ZM25.2763 391.254L18.4451 398.085L32.473 412.113L39.3042 405.282L25.2763 391.254ZM18.4451 412.113L25.3698 419.038L39.3978 405.01L32.473 398.085L18.4451 412.113ZM39.3011 419.133L46.2258 412.396L32.3913 398.177L25.4666 404.914L39.3011 419.133Z" fill="#041C3A" mask="url(#path-51-inside-11_19_1890)"/>
<mask id="path-53-inside-12_19_1890" fill="white">
<path d="M32.2902 316.855L39.3086 323.873L32.3838 330.611L25.4591 323.686L32.2902 316.855Z"/>
</mask>
<path d="M39.3086 323.873L46.2258 330.983L53.4333 323.97L46.3226 316.859L39.3086 323.873ZM32.2902 316.855L39.3042 309.841L32.2902 302.827L25.2763 309.841L32.2902 316.855ZM25.4591 323.686L18.4451 316.672L11.4311 323.686L18.4451 330.7L25.4591 323.686ZM32.3838 330.611L25.3698 337.625L32.2884 344.543L39.3011 337.72L32.3838 330.611ZM46.3226 316.859L39.3042 309.841L25.2763 323.869L32.2946 330.887L46.3226 316.859ZM25.2763 309.841L18.4451 316.672L32.473 330.7L39.3042 323.869L25.2763 309.841ZM18.4451 330.7L25.3698 337.625L39.3978 323.597L32.473 316.672L18.4451 330.7ZM39.3011 337.72L46.2258 330.983L32.3913 316.764L25.4666 323.502L39.3011 337.72Z" fill="#041C3A" mask="url(#path-53-inside-12_19_1890)"/>
<mask id="path-55-inside-13_19_1890" fill="white">
<path d="M3 493.811L3 479.961L9.92477 486.886L3 493.811Z"/>
</mask>
<path d="M3 479.961L-6.91927 479.961L-6.91927 456.014L10.014 472.947L3 479.961ZM3 493.811L10.014 500.825L-6.91927 517.758L-6.91927 493.811L3 493.811ZM9.92477 486.886L16.9388 479.872L23.9527 486.886L16.9388 493.9L9.92477 486.886ZM12.9193 479.961L12.9193 493.811L-6.91927 493.811L-6.91927 479.961L12.9193 479.961ZM-4.01398 486.797L2.91079 479.872L16.9388 493.9L10.014 500.825L-4.01398 486.797ZM2.91079 493.9L-4.01398 486.975L10.014 472.947L16.9388 479.872L2.91079 493.9Z" fill="#041C3A" mask="url(#path-55-inside-13_19_1890)"/>
<mask id="path-57-inside-14_19_1890" fill="white">
<path d="M3 574.943L3 561.094L9.92477 568.018L3 574.943Z"/>
</mask>
<path d="M3 561.094L-6.91927 561.094L-6.91927 537.146L10.014 554.08L3 561.094ZM3 574.943L10.014 581.957L-6.91927 598.89L-6.91927 574.943L3 574.943ZM9.92477 568.018L16.9388 561.004L23.9527 568.018L16.9388 575.032L9.92477 568.018ZM12.9193 561.094L12.9193 574.943L-6.91927 574.943L-6.91927 561.094L12.9193 561.094ZM-4.01398 567.929L2.91079 561.004L16.9388 575.032L10.014 581.957L-4.01398 567.929ZM2.91079 575.032L-4.01398 568.107L10.014 554.08L16.9388 561.004L2.91079 575.032Z" fill="#041C3A" mask="url(#path-57-inside-14_19_1890)"/>
<mask id="path-59-inside-15_19_1890" fill="white">
<path d="M3 655.046L3 641.196L9.92477 648.121L3 655.046Z"/>
</mask>
<path d="M3 641.196L-6.91927 641.196L-6.91927 617.249L10.014 634.182L3 641.196ZM3 655.046L10.014 662.06L-6.91927 678.993L-6.91927 655.046L3 655.046ZM9.92477 648.121L16.9388 641.107L23.9527 648.121L16.9388 655.135L9.92477 648.121ZM12.9193 641.196L12.9193 655.046L-6.91927 655.046L-6.91927 641.196L12.9193 641.196ZM-4.01398 648.032L2.91079 641.107L16.9388 655.135L10.014 662.06L-4.01398 648.032ZM2.91079 655.135L-4.01398 648.21L10.014 634.182L16.9388 641.107L2.91079 655.135Z" fill="#041C3A" mask="url(#path-59-inside-15_19_1890)"/>
<mask id="path-61-inside-16_19_1890" fill="white">
<path d="M3 735.149L3 721.299L9.92477 728.224L3 735.149Z"/>
</mask>
<path d="M3 721.299L-6.91927 721.299L-6.91927 697.352L10.014 714.285L3 721.299ZM3 735.149L10.014 742.163L-6.91927 759.096L-6.91927 735.149L3 735.149ZM9.92477 728.224L16.9388 721.21L23.9527 728.224L16.9388 735.238L9.92477 728.224ZM12.9193 721.299L12.9193 735.149L-6.91927 735.149L-6.91927 721.299L12.9193 721.299ZM-4.01398 728.135L2.91079 721.21L16.9388 735.238L10.014 742.163L-4.01398 728.135ZM2.91079 735.238L-4.01398 728.313L10.014 714.285L16.9388 721.21L2.91079 735.238Z" fill="#041C3A" mask="url(#path-61-inside-16_19_1890)"/>
<mask id="path-63-inside-17_19_1890" fill="white">
<path d="M3 412.211L3 398.362L9.92477 405.286L3 412.211Z"/>
</mask>
<path d="M3 398.362L-6.91927 398.362L-6.91927 374.414L10.014 391.348L3 398.362ZM3 412.211L10.014 419.225L-6.91927 436.158L-6.91927 412.211L3 412.211ZM9.92477 405.286L16.9388 398.272L23.9527 405.286L16.9388 412.3L9.92477 405.286ZM12.9193 398.362L12.9193 412.211L-6.91927 412.211L-6.91927 398.362L12.9193 398.362ZM-4.01398 405.197L2.91079 398.272L16.9388 412.3L10.014 419.225L-4.01398 405.197ZM2.91079 412.3L-4.01398 405.376L10.014 391.348L16.9388 398.272L2.91079 412.3Z" fill="#041C3A" mask="url(#path-63-inside-17_19_1890)"/>
<mask id="path-65-inside-18_19_1890" fill="white">
<path d="M3.00049 330.798L3.00049 316.949L9.92526 323.874L3.00049 330.798Z"/>
</mask>
<path d="M3.00049 316.949L-6.91878 316.949L-6.91878 293.002L10.0145 309.935L3.00049 316.949ZM3.00049 330.798L10.0145 337.812L-6.91878 354.745L-6.91878 330.798L3.00049 330.798ZM9.92526 323.874L16.9392 316.86L23.9532 323.874L16.9392 330.887L9.92526 323.874ZM12.9198 316.949L12.9198 330.798L-6.91878 330.798L-6.91878 316.949L12.9198 316.949ZM-4.01349 323.784L2.91128 316.86L16.9392 330.887L10.0145 337.812L-4.01349 323.784ZM2.91128 330.887L-4.01349 323.963L10.0145 309.935L16.9392 316.86L2.91128 330.887Z" fill="#041C3A" mask="url(#path-65-inside-18_19_1890)"/>
</svg>
