<svg width="92" height="99" viewBox="0 0 92 99" fill="none" xmlns="http://www.w3.org/2000/svg">
<g clip-path="url(#clip0_18_1505)">
<path fill-rule="evenodd" clip-rule="evenodd" d="M58.7406 65.4419C59.4717 65.269 60.7779 64.6353 61.5314 64.3301L80.4406 56.6168C80.2867 57.34 79.5502 58.6562 79.2371 59.4232C78.9207 60.1973 78.9976 60.0905 78.2313 60.3946L59.8715 67.9452C60.0072 68.8302 60.2947 69.4639 60.3535 70.4861C60.5074 73.1359 60.0521 75.6504 58.6562 77.8811C57.1694 80.2583 55.0178 82.3578 51.8999 83.5641C46.174 85.7786 39.4177 84.2843 35.6864 79.9674C35.3187 79.5412 34.5844 78.5138 34.3182 78.3053C32.8015 78.7437 28.7046 80.7516 27.733 80.9052C27.2456 80.0681 26.2141 79.7375 25.917 78.8586C26.6994 78.641 32.8453 76.1285 33.1435 75.8793C32.6241 73.8886 32.2254 72.6761 32.4381 70.3356C33.197 61.9743 42.6275 56.0583 51.8956 59.5666C54.5026 60.5533 57.722 63.1319 58.7406 65.4409V65.4419ZM56.1871 52.7331L57.2314 52.7433V55.9017L56.185 55.9007L56.1871 52.7331ZM47.7378 52.7209L48.7072 52.7352C48.7916 53.315 48.7286 54.205 48.7329 54.8255C48.7414 55.9007 48.9723 56.0085 47.7164 55.8752L47.7367 52.7209H47.7378ZM49.2128 55.9017C49.2085 55.4633 50.2774 52.9742 50.458 52.7158L51.4969 52.722C51.6808 53.0627 52.7112 55.6016 52.7454 55.9007L51.7246 55.9047L51.4852 55.3717L50.3907 55.3768L50.1384 55.9058L49.2138 55.9007L49.2128 55.9017ZM30.6841 52.6874L29.4154 55.8529C30.6253 55.8661 30.2501 56.0654 30.6841 55.3575L31.753 55.3453C32.2884 56.0451 31.676 55.8376 33.0035 55.8854C32.9009 55.3321 32.08 53.0739 31.753 52.7006L30.6841 52.6874ZM58.9266 52.7799C57.009 53.4228 57.6728 56.6127 60.2424 55.9007C62.1225 55.3799 61.4844 51.9224 58.9266 52.7799ZM41.3096 52.7097C39.3034 53.0556 39.5246 56.2068 42.1209 55.921C44.0545 55.7084 44.0694 52.2337 41.3096 52.7097ZM64.0956 54.2782C63.6937 54.0972 63.9438 54.3322 63.4297 53.5611C63.1785 53.1848 63.0567 53.0861 62.9017 52.7494L61.8692 52.7443L61.8734 55.918L62.814 55.921L62.8536 54.3139C63.8636 54.8682 63.2982 56.1845 65.0447 55.8905L65.064 52.7525C63.7129 52.6446 64.0379 52.9651 64.0945 54.2782H64.0956ZM55.7296 52.7677L52.5594 52.7209L52.5401 53.4584L53.5577 53.5093L53.5908 55.8905L54.5785 55.9098L54.6191 53.5255L55.735 53.4798L55.7296 52.7677ZM47.0719 54.8001L46.2969 54.6424C45.8876 55.1958 45.7443 55.3382 45.0923 55.0503C44.9566 54.7075 44.8411 53.9477 45.1223 53.6069C45.5509 53.0871 46.0094 53.5825 46.2905 53.8175L47.0847 53.6506C46.779 52.2673 43.7701 52.0516 43.9337 54.5214C44.079 56.7124 47.3637 56.095 47.0719 54.8001ZM38.599 55.0269C38.4665 55.2019 38.3788 55.3799 37.9994 55.2863C37.7311 55.2202 37.6028 54.9476 37.419 54.7787L36.6195 54.8031C36.721 56.2923 38.77 56.1244 39.3365 55.5314C39.8015 55.0442 39.655 54.3667 39.1591 54.0768C38.5413 53.7157 37.6979 53.9355 37.7642 53.2967C38.661 52.9681 37.7407 53.6588 39.4755 53.614C39.3996 52.249 37.2319 52.4839 36.8258 53.1431C35.9995 54.4878 38.3799 54.3047 38.599 55.0259V55.0269ZM35.2129 54.9252C34.9093 55.801 34.3417 55.0554 34.1044 54.7818L33.2323 54.8011C33.2985 56.2302 35.4427 56.1804 36.022 55.4287C36.4538 54.8682 36.1791 54.3027 35.7644 54.0585C35.2364 53.7473 34.4785 53.8795 34.3385 53.3994C34.6357 53.0973 34.7041 53.1532 35.0493 53.4147C35.494 53.7503 35.433 53.6232 36.0679 53.6171C36.084 52.2764 33.9388 52.486 33.5219 53.0485C32.5685 54.3332 34.889 54.4502 35.2139 54.9242L35.2129 54.9252ZM66.8618 24.5122L75.9749 24.5377C76.4847 26.5741 76.7937 29.1496 77.1186 31.2226C77.4478 33.3272 77.8005 35.6444 78.2302 37.7459L79.3194 44.3464C79.5331 46.4459 80.168 48.7732 80.4096 50.9927L74.3545 50.9561L73.3295 45.1551L69.5115 45.1947L68.4117 50.9744L62.41 50.948L66.8618 24.5112V24.5122ZM49.4907 24.4817L62.3074 24.5326L62.2839 30.5198L55.5853 30.5381L55.6014 34.7726L62.2764 34.7808L62.2561 40.71L55.5447 40.7527L55.5426 50.9327L49.4479 50.9225L49.4907 24.4807V24.4817ZM31.9357 24.4451L37.978 24.4827C38.1736 25.9455 37.931 31.6549 37.8871 33.8694C37.8829 34.0606 37.8529 34.4207 37.8647 34.5885C37.8968 35.0625 37.962 35.0381 38.0582 35.1388C38.3051 34.6618 38.7486 33.019 38.8993 32.4494C39.1495 31.5074 39.4445 30.6439 39.6946 29.7365C39.9244 28.9024 41.005 24.9242 41.3716 24.4665L47.4032 24.4766C47.3241 25.1531 44.8101 33.2357 44.3869 34.5051C43.5959 36.8782 43.6269 36.5558 44.0138 37.8395C44.3484 38.9482 48.037 50.2136 48.0948 50.947L41.7308 50.9144C41.0381 48.9156 40.4439 46.8294 39.8464 44.9008L38.0058 38.7956C37.6926 39.115 37.8316 39.6806 37.8519 40.3814C37.8658 40.8554 37.8893 41.303 37.8946 41.8014C37.9053 42.8196 37.9245 43.8358 37.9395 44.854C37.9609 46.3025 38.1201 49.647 37.9042 50.9256L31.8823 50.8961L31.9347 24.4441L31.9357 24.4451ZM14.3605 24.4207L20.3824 24.4512C20.6144 26.1703 20.0746 35.5406 20.2082 35.8631C20.5684 35.3534 22.3491 28.8607 22.8707 27.2536C23.1005 26.5456 23.4137 25.0005 23.7354 24.4339L29.8087 24.442C29.8162 25.0107 28.1349 30.2339 27.8441 31.0792C27.5085 32.0567 27.1601 33.317 26.8479 34.3851C26.4322 35.8051 25.9127 36.3625 26.4268 37.8252C27.1397 39.8484 27.8473 42.2785 28.4993 44.3912C29.1802 46.5964 29.9455 48.7722 30.5815 50.9083L24.1095 50.8951C23.9695 49.9521 23.4436 48.7885 23.1582 47.7357C22.891 46.749 22.503 45.5182 22.1931 44.5712C21.8414 43.496 20.5203 38.9777 20.2071 38.4131C20.2039 38.4213 20.3674 49.6511 20.3568 50.8961L14.307 50.8829L14.3594 24.4217L14.3605 24.4207ZM83.1021 18.7651L84.2896 18.7814L84.296 21.4027L85.2815 21.4068L85.2911 22.19L83.0347 22.1778L83.1021 18.7641V18.7651ZM80.4256 18.7631L81.5244 18.7661C81.7222 19.3683 81.5789 20.6408 81.5918 21.3661L82.604 21.4088V22.1829L80.3572 22.1717L80.4246 18.7621L80.4256 18.7631ZM30.6723 18.6878L31.8876 18.701C31.9186 19.3144 31.9015 19.9369 31.8908 20.5513C31.8716 21.6234 31.925 21.2328 32.9255 21.3539L32.9159 22.0984L30.6563 22.1066L30.6723 18.6878ZM77.3452 18.76L79.1676 18.7671L80.0045 22.19L78.8309 22.2002L78.5947 21.4515C77.5087 21.4312 77.9352 21.4454 77.6188 22.1839L76.4057 22.1696L77.3452 18.759V18.76ZM49.3207 22.132C49.3763 21.7028 50.0508 19.0103 50.2421 18.7193L52.0453 18.7407L52.8822 22.1564L51.7054 22.1432L51.482 21.4139L50.7412 21.421L50.4548 22.1503L49.3197 22.133L49.3207 22.132ZM36.3202 22.1168C36.4388 21.4535 36.9583 19.1679 37.31 18.6959L39.0693 18.7061L39.9319 22.1218L38.7283 22.1269L38.5285 21.3966L37.7589 21.3945L37.5483 22.1096L36.3213 22.1178L36.3202 22.1168ZM20.5278 18.6807L22.378 18.7081L23.2438 22.0283C22.9723 22.1127 22.4314 22.1839 22.1567 22.0649C21.851 21.9326 21.9579 21.7038 21.8115 21.36L21.0505 21.3661L20.8495 22.0791L19.6214 22.0964L20.5278 18.6807ZM66.8778 18.8536C69.7744 17.6493 70.2843 21.2745 68.8039 22.0303C67.6528 22.6182 65.5738 22.1646 66.0794 19.7803C66.2141 19.1476 66.3455 19.0743 66.8778 18.8536ZM63.0609 18.7773C61.261 19.3195 61.82 23.0851 64.6888 22.0954C66.1863 21.5787 66.1916 17.8364 63.0609 18.7773ZM33.4268 18.6868L33.3819 22.1086L34.501 22.129L34.5929 21.1097C34.8067 21.0528 36.9027 21.0162 36.3074 19.3663C35.9942 18.4986 34.4433 18.6308 33.4268 18.6878V18.6868ZM73.1862 18.7773C73.8254 18.7407 75.1861 18.6736 75.7013 18.8933C76.0251 19.0316 76.2261 19.2727 76.1652 19.7284C76.0861 20.3265 75.8573 20.0763 75.6029 20.4425C75.9717 20.6378 76.2571 20.7059 76.2827 21.1636C76.3533 22.4311 74.0296 22.1981 73.1927 22.1727L73.1862 18.7763V18.7773ZM16.418 18.6715L16.4116 22.0832L17.5585 22.0903C17.5948 21.6631 17.458 20.9622 17.6419 20.6734C17.8909 21.0324 18.0972 21.6855 18.2789 22.074L19.4931 22.0903C19.3606 21.4719 19.0121 21.1779 18.7802 20.6459C18.932 20.5116 18.7748 20.6439 18.9801 20.4994C19.8811 19.8606 19.4504 19.0977 19.1607 18.9014C18.6872 18.58 17.1192 18.6624 16.4191 18.6705L16.418 18.6715ZM53.2028 18.7438L54.7313 18.7458C55.0156 19.2015 55.1364 19.7772 55.2625 20.0366L55.5212 20.3997L55.4378 18.7407L56.6264 18.7651L56.604 22.1483L55.3726 22.131C54.9878 21.4983 54.6843 20.4465 54.3722 20.0834L54.3668 22.1605L53.1943 22.1015L53.2028 18.7448V18.7438ZM69.8397 18.7509L69.8001 19.528L70.6242 19.5809V22.1056C71.0015 22.2368 71.4953 22.2012 71.9015 22.1452C71.9175 19.1232 71.6642 19.6541 72.8057 19.5483L72.7854 18.761L69.8397 18.7519V18.7509ZM59.1329 18.7346L61.6693 18.7549L61.6543 19.5026C60.5438 19.6114 60.6197 19.3042 60.3268 19.7325C60.4625 20.3234 60.2242 19.9898 61.6639 20.0763L61.6426 20.83L60.3439 20.8341L60.3225 22.1463L59.0912 22.1564L59.1329 18.7346ZM49.6361 18.7173L46.6625 18.7224L46.6571 19.4873L47.5133 19.5545L47.5176 22.1391L48.7681 22.1188L48.7724 19.5717L49.6435 19.4263L49.635 18.7163L49.6361 18.7173ZM45.2462 21.2928C45.1094 20.4038 43.3031 20.6551 43.6718 19.3815C43.939 18.4579 45.4525 18.5403 46.3055 18.9106L46.3429 19.6806C45.8982 19.5687 45.4504 19.2605 44.9074 19.53C44.901 20.1882 45.1639 19.8494 45.9079 20.295C47.2642 21.1097 45.8448 22.9671 43.7263 21.8828L43.7146 21.1321C44.4029 21.2816 44.4115 21.6458 45.2473 21.2938L45.2462 21.2928ZM40.2889 18.702L40.2611 22.1127L41.486 22.1147L41.4593 20.7252C41.8847 21.0406 41.8227 21.4546 42.2663 22.1269L43.4698 22.1371C43.4228 21.5909 42.8595 20.9409 42.728 20.4791C42.588 19.9878 43.2411 19.3642 43.3298 18.701L42.1252 18.7122C41.9542 19.1374 41.7799 19.8759 41.4133 20.0142L41.5106 18.7224L40.291 18.702H40.2889ZM23.5975 18.6746L24.7455 18.6776C24.8791 19.1486 24.6621 19.4487 24.9678 19.7925L25.42 18.6817L26.663 18.6787C26.3659 20.0976 25.592 19.5687 26.3595 21.1036C26.5166 21.4179 26.5572 21.6448 26.8095 21.7485L27.6271 18.6797L29.2924 18.6848C29.6441 18.7844 30.2619 21.6794 30.3303 22.1137L29.1374 22.1005L28.8649 21.361L28.1423 21.3874L27.936 22.1015H25.5172L25.0448 21.0273C24.8855 20.769 25.0159 20.9114 24.785 20.7344L24.738 22.1147L23.5633 22.0964L23.5975 18.6736V18.6746ZM9.34323 18.6492L10.4837 18.6603L10.457 19.9664C10.613 19.8484 10.5061 19.9532 10.6355 19.7874L10.8813 19.3012C10.9957 19.0387 11.0919 18.8312 11.2501 18.6512L12.3628 18.6593C12.3531 19.1181 11.7546 19.7843 11.7546 20.24C11.7546 20.5523 12.2484 21.6163 12.5391 21.7495L13.4156 18.6563L15.2027 18.6471L16.0824 22.0974L14.8511 22.0415L14.6587 21.3417L13.8923 21.364L13.686 22.0842L11.2501 22.0455C11.0844 21.6722 10.8097 20.9043 10.4677 20.6266L10.4698 22.07L9.28978 22.0659L9.34429 18.6471L9.34323 18.6492ZM4.06306 19.2239C3.99999 20.2004 4.81233 27.8364 4.90104 29.1903C5.03786 31.2765 5.71551 36.7002 6.08641 38.7458C7.48982 46.4744 7.99539 48.7468 10.3971 56.1204C10.8525 57.519 11.4254 58.7366 11.9459 60.0416C13.22 63.2417 15.8622 67.8628 17.7028 70.6377C21.9515 77.044 27.8313 82.9874 33.8126 87.4478C36.9936 89.8199 40.1969 91.9529 43.7851 94.031C45.646 95.1092 45.7657 95.4307 46.4904 95.0024C49.3485 93.3139 51.4713 92.0465 54.0868 90.2166C58.7235 86.9727 62.4367 83.8642 66.0869 80.1759C70.1945 76.0258 72.562 72.845 75.7814 68.0398C78.4568 64.0463 81.3438 58.1456 82.946 53.4025C85.8084 44.9293 87.8243 35.1398 87.9184 25.8346C87.9354 24.087 88.037 22.3527 88.0006 20.5462C87.9654 18.7326 88.6249 19.408 85.0549 18.0429C73.1136 13.4747 60.6945 9.04383 48.6025 4.52344C45.9153 3.51846 46.8624 3.51541 44.6124 4.30882C36.4463 7.1895 28.3775 10.3448 20.2189 13.2438C17.5371 14.1969 14.8329 15.1714 12.1105 16.2008C10.8973 16.6595 4.55473 18.8394 4.06306 19.2249V19.2239Z" fill="white"/>
<path fill-rule="evenodd" clip-rule="evenodd" d="M1.92822 17.8016C3.75384 17.2075 5.72802 16.4609 7.51836 15.7824C9.35787 15.0857 11.1696 14.4977 13.008 13.803C16.6475 12.4278 20.4259 11.0617 24.0846 9.78509C27.8748 8.46376 31.5421 7.02037 35.1537 5.77635C37.1376 5.0928 38.7921 4.45604 40.6477 3.79385L46.1534 1.79914C46.66 1.68827 50.928 3.40935 51.6965 3.69315L90.2278 17.8056C90.2695 23.0899 90.137 28.7231 89.392 33.802C88.3146 41.1552 87.9907 42.683 86.0913 49.3843C84.2583 55.8506 81.15 61.9598 77.8226 67.6398C76.8318 69.3314 75.8025 70.6802 74.7272 72.2222C72.5179 75.3928 71.6094 76.0947 69.6138 78.5461C69.0452 79.2439 68.4348 79.8074 67.7668 80.552L61.8421 86.1018C59.5248 88.3162 48.9089 95.8607 45.9695 97.065C45.247 96.7589 44.2155 96.1333 43.3882 95.6308C34.9817 90.5296 28.1271 85.5494 21.7866 78.3487C21.1474 77.6225 20.6429 77.0244 20.024 76.2594L16.6806 71.8123C15.6449 70.3679 14.6829 68.7027 13.7231 67.1017C9.6176 60.2479 7.31528 52.563 5.36354 44.7317C4.83446 42.6078 4.52983 40.43 4.14932 38.2634C3.78483 36.1893 3.44066 33.9138 3.19162 31.6811C3.03877 30.3059 1.83523 19.0273 1.92716 17.8026L1.92822 17.8016ZM0 16.7813C0.0245838 17.8829 0.183844 19.3111 0.270422 20.4229L2.28095 38.1352C2.62512 40.4422 3.15421 42.6291 3.5732 44.8466C4.19955 48.1586 5.93431 53.982 7.16243 57.1759C8.63639 61.0067 10.2579 64.7581 12.2716 68.0853C16.7362 75.4589 20.3447 79.9742 26.7365 85.7396C29.5722 88.2979 32.4249 90.4848 35.8186 92.864C37.7842 94.2423 43.9783 98.1097 45.9685 99.0007C46.8631 98.6519 47.6947 98.0659 48.4867 97.6021C49.2723 97.1413 50.1317 96.6215 50.9707 96.0977C52.5505 95.112 54.1752 94.0002 55.7229 92.9953C56.4711 92.509 57.2642 91.9038 57.9675 91.3698C63.626 87.0701 67.5862 83.569 72.2336 78.1962C73.4734 76.7629 74.4931 75.3816 75.6956 73.8599C78.5837 70.2061 82.5534 63.3493 84.347 59.0964C90.572 44.336 92.1144 32.856 91.9915 16.7101L48.9688 0.907065C48.2473 0.646664 46.6194 -0.146744 46.1031 0.0231271C42.3012 1.27224 38.4223 2.92212 34.5776 4.20988C30.719 5.50273 26.8508 7.02139 23.035 8.38544C20.7188 9.21445 0.370894 16.4874 0 16.7813Z" fill="white"/>
<path fill-rule="evenodd" clip-rule="evenodd" d="M4.06511 19.2228C4.55678 18.8383 10.8994 16.6574 12.1126 16.1987C14.8349 15.1693 17.5392 14.1948 20.2209 13.2417C28.3795 10.3427 36.4484 7.18843 44.6145 4.30673C46.8644 3.51332 45.9174 3.51739 48.6045 4.52136C60.6965 9.04175 73.1156 13.4726 85.0569 18.0408C88.6258 19.4059 87.9664 18.7305 88.0027 20.5441C88.038 22.3507 87.9375 24.085 87.9204 25.8325C87.8263 35.1388 85.8105 44.9272 82.9481 53.4004C81.3458 58.1435 78.4588 64.0442 75.7835 68.0377C72.5641 72.8439 70.1966 76.0237 66.0889 80.1738C62.4398 83.8611 58.7255 86.9707 54.0888 90.2145C51.4733 92.0434 49.3506 93.3108 46.4924 95.0004C45.7678 95.4286 45.6491 95.1061 43.7872 94.0289C40.1979 91.9508 36.9956 89.8178 33.8147 87.4457C27.8344 82.9853 21.9546 77.0419 17.7048 70.6356C15.8643 67.8607 13.222 63.2396 11.948 60.0396C11.4285 58.7345 10.8556 57.5169 10.3992 56.1183C7.99744 48.7447 7.49187 46.4733 6.08846 38.7437C5.7165 36.6981 5.03991 31.2745 4.90309 29.1882C4.81438 27.8343 4.00204 20.1983 4.06511 19.2218V19.2228ZM1.92846 17.8018C1.83547 19.0275 3.039 30.3051 3.19292 31.6803C3.44196 33.913 3.78613 36.1885 4.15062 38.2625C4.53113 40.4281 4.83576 42.607 5.36484 44.7309C7.31551 52.5622 9.6189 60.2471 13.7244 67.1009C14.6842 68.703 15.6462 70.3671 16.6819 71.8115L20.0253 76.2586C20.6442 77.0226 21.1487 77.6217 21.7879 78.3479C28.1284 85.5486 34.983 90.5288 43.3895 95.63C44.2168 96.1325 45.2483 96.7581 45.9708 97.0642C48.9102 95.8599 59.5261 88.3154 61.8434 86.101L67.7681 80.5512C68.4372 79.8066 69.0475 79.2431 69.6151 78.5453C71.6107 76.0939 72.5192 75.391 74.7285 72.2214C75.8038 70.6794 76.8331 69.3306 77.8239 67.639C81.1524 61.959 84.2596 55.8497 86.0926 49.3835C87.9931 42.6822 88.3159 41.1544 89.3933 33.8012C90.1383 28.7223 90.2708 23.0891 90.2291 17.8048L51.6967 3.69235C50.9293 3.40855 46.6613 1.68747 46.1536 1.79834L40.6479 3.79305C38.7924 4.45524 37.1378 5.09302 35.154 5.77555C31.5423 7.01957 27.874 8.46297 24.0849 9.78429C20.4261 11.0598 16.6467 12.427 13.0083 13.8022C11.1698 14.4969 9.3581 15.0849 7.51859 15.7816C5.72825 16.4601 3.75407 17.2067 1.92846 17.8008V17.8018Z" fill="#070B15"/>
<path fill-rule="evenodd" clip-rule="evenodd" d="M55.5019 69.6753C55.9626 69.4353 56.9716 69.002 57.4686 68.9185C58.8463 74.861 55.5863 79.3458 51.0191 81.2886C47.1829 82.9202 42.3966 82.2987 39.2392 79.8442C38.7026 79.4271 37.0608 78.0204 36.8161 77.3053L38.6898 76.5058C39.0297 76.7499 39.1323 76.9696 39.3418 77.2056C40.6201 78.6408 43.1982 80.0558 45.1874 80.1178C45.554 77.5392 43.4932 76.3562 43.272 76.0857L43.7038 75.3858C44.406 75.5771 44.7149 76.0033 45.865 76.0928C47.168 76.1945 47.4769 75.9229 48.4292 75.7612L48.6922 76.4844C48.0028 77.1018 46.4871 77.3317 46.3407 80.1971C48.6056 80.1982 50.0828 79.6163 51.6134 78.7151C52.5818 78.1445 54.4683 76.3725 54.7344 75.2709C54.1861 74.925 52.9152 74.8121 52.1777 74.8813C50.9646 74.9952 50.7316 75.4896 50.0304 75.6971C49.8284 75.4876 49.6253 75.3309 49.4842 75.0675C50.9656 73.562 51.0715 73.6261 51.2842 71.0709L52.166 71.0079C52.4172 71.6833 52.2354 72.1491 53.1215 73.0382C53.5352 73.4532 54.3828 74.0849 55.1599 74.1988C56.0759 72.8195 55.4581 70.2551 55.4997 69.6753H55.5019ZM35.6018 74.9373C36.8449 74.4805 38.7571 73.4654 40.7142 74.2639C41.3822 74.5365 41.5383 74.7979 42.015 75.1224C42.3613 74.9861 42.4522 74.8589 42.667 74.6585C42.3667 73.973 41.9562 73.8011 41.6687 72.85C41.3256 71.7158 41.5511 71.4503 41.6366 70.3487L40.7388 70.189C40.2247 71.2978 40.338 71.3954 39.5203 72.082C38.9559 72.555 37.9972 73.0158 37.2596 73.1694C37.0715 70.9204 37.0202 69.8523 37.9565 67.9431C38.5113 66.8119 39.9158 65.039 40.9461 64.5965C41.3427 64.981 41.7296 65.9026 41.8354 66.58C42.0289 67.821 41.5736 68.0397 41.3459 68.8911C41.7307 69.0182 41.7766 69.1657 42.1219 69.2369C43.769 66.9788 44.9811 67.3511 46.0724 67.0306L46.0478 66.164C44.3163 66.0114 43.6183 65.9595 42.3186 64.5101C42.0236 64.1815 42.0759 64.3615 41.9584 63.917C43.8663 63.3199 44.5183 62.8185 47.1498 62.9487C48.7061 63.026 50.9475 63.7146 51.7994 64.5894C51.545 65.0959 50.8662 65.5974 50.1747 65.9504C49.1582 66.4692 48.7873 66.2596 47.5752 66.2922L47.3764 67.0825C48.5457 67.2982 49.6413 67.9624 50.3372 68.8779C50.6396 69.2756 50.6396 69.4719 50.8865 69.8717C51.2767 69.8605 51.4755 69.717 51.7876 69.6184C51.5621 68.648 51.2959 68.294 51.6497 67.1436C51.8389 66.5282 52.2675 65.7307 52.7036 65.3126C53.2915 65.513 54.0194 66.6736 54.432 67.2036L56.3388 66.4508C56.1379 65.6605 54.5207 64.0299 54.0172 63.6434C45.9997 57.4914 35.7397 62.6598 35.0353 70.5644C34.9338 71.6995 35.0001 74.1082 35.6018 74.9362V74.9373ZM58.7416 65.4418C57.723 63.1328 54.5036 60.5532 51.8966 59.5675C42.6285 56.0603 33.199 61.9762 32.4391 70.3365C32.2264 72.6771 32.6251 73.8895 33.1445 75.8802C32.8463 76.1304 26.7004 78.6419 25.918 78.8595C26.2151 79.7374 27.2476 80.069 27.734 80.9061C28.7056 80.7525 32.8025 78.7436 34.3192 78.3062C34.5854 78.5157 35.3197 79.5431 35.6874 79.9683C39.4187 84.2852 46.175 85.7795 51.9009 83.5651C55.0188 82.3597 57.1704 80.2592 58.6572 77.882C60.052 75.6513 60.5074 73.1368 60.3545 70.4871C60.2957 69.4648 60.0071 68.8311 59.8725 67.9461L78.2323 60.3955C78.9997 60.0914 78.9217 60.1982 79.2381 59.4241C79.5523 58.6571 80.2888 57.3399 80.4416 56.6177L61.5324 64.331C60.7788 64.6362 59.4727 65.2699 58.7416 65.4428V65.4418Z" fill="#070B15"/>
<path fill-rule="evenodd" clip-rule="evenodd" d="M31.8843 50.898L37.9062 50.9275C38.1221 49.6489 37.9629 46.3044 37.9415 44.8559C37.9265 43.8377 37.9062 42.8215 37.8966 41.8033C37.8913 41.3049 37.8678 40.8573 37.8539 40.3833C37.8336 39.6825 37.6946 39.1159 38.0078 38.7975L39.8484 44.9027C40.4458 46.8323 41.0401 48.9186 41.7328 50.9163L48.0968 50.9489C48.039 50.2155 44.3493 38.9501 44.0158 37.8414C43.6289 36.5567 43.5979 36.8801 44.3889 34.507C44.8121 33.2376 47.3261 25.155 47.4052 24.4786L41.3736 24.4684C41.0081 24.9261 39.9264 28.9043 39.6966 29.7384C39.4465 30.6458 39.1515 31.5094 38.9013 32.4513C38.7506 33.0209 38.3071 34.6627 38.0602 35.1407C37.964 35.04 37.8977 35.0644 37.8667 34.5904C37.856 34.4236 37.8859 34.0635 37.8891 33.8713C37.933 31.6569 38.1756 25.9464 37.98 24.4847L31.9377 24.447L31.8853 50.899L31.8843 50.898Z" fill="#070B15"/>
<path fill-rule="evenodd" clip-rule="evenodd" d="M14.3091 50.8819L20.3588 50.8951C20.3706 49.65 20.206 38.4203 20.2092 38.4121C20.5234 38.9767 21.8435 43.495 22.1951 44.5702C22.5051 45.5172 22.8931 46.749 23.1603 47.7347C23.4457 48.7885 23.9705 49.9511 24.1116 50.8941L30.5835 50.9073C29.9476 48.7712 29.1823 46.5964 28.5014 44.3902C27.8494 42.2775 27.1407 39.8474 26.4289 37.8242C25.9137 36.3615 26.4342 35.8041 26.85 34.3841C27.1632 33.316 27.5106 32.0557 27.8462 31.0782C28.1369 30.2329 29.8182 25.0096 29.8108 24.441L23.7375 24.4329C23.4158 24.9985 23.1026 26.5446 22.8728 27.2526C22.3512 28.8607 20.5705 35.3524 20.2103 35.862C20.0767 35.5396 20.6164 26.1703 20.3845 24.4502L14.3625 24.4197L14.3102 50.8808L14.3091 50.8819Z" fill="#070B15"/>
<path fill-rule="evenodd" clip-rule="evenodd" d="M69.8873 39.5981C69.9771 38.6673 70.2058 37.6766 70.2967 36.7174L71.4083 28.1506C71.6435 29.5991 71.6082 29.1719 71.6435 29.5991L72.9346 39.6093L69.8884 39.597L69.8873 39.5981ZM62.4106 50.9499L68.4123 50.9763L69.5122 45.1967L73.3301 45.157L74.3552 50.958L80.4102 50.9946C76.3561 26.812 79.211 43.8418 75.9755 24.5396L66.8624 24.5142L62.4106 50.9509V50.9499Z" fill="#070B15"/>
<path fill-rule="evenodd" clip-rule="evenodd" d="M49.4487 50.9245L55.5434 50.9347L55.5466 40.7546L62.2569 40.7119L62.2772 34.7817L55.6022 34.7736L55.5861 30.539L62.2847 30.5207L62.3082 24.5335L49.4915 24.4827L49.4487 50.9245Z" fill="#070B15"/>
<path fill-rule="evenodd" clip-rule="evenodd" d="M35.6016 74.9373C36.8447 74.4806 38.7569 73.4655 40.714 74.264C41.382 74.5366 41.5381 74.798 42.0148 75.1225C42.3611 74.9862 42.4519 74.859 42.6668 74.6586C42.3664 73.973 41.956 73.8011 41.6685 72.8501C41.3254 71.7159 41.5509 71.4504 41.6364 70.3488L40.7386 70.1891C40.2244 71.2978 40.3377 71.3955 39.5201 72.0821C38.9557 72.5551 37.9969 73.0159 37.2594 73.1695C37.0713 70.9205 37.02 69.8524 37.9563 67.9432C38.5111 66.812 39.9155 65.0391 40.9459 64.5966C41.3425 64.9811 41.7294 65.9027 41.8352 66.5801C42.0287 67.8211 41.5733 68.0398 41.3457 68.8912C41.7305 69.0183 41.7764 69.1658 42.1217 69.237C43.7688 66.9789 44.9809 67.3511 46.0722 67.0307L46.0476 66.1641C44.316 66.0115 43.6181 65.9596 42.3183 64.5101C42.0233 64.1816 42.0757 64.3616 41.9581 63.9171C43.866 63.32 44.5181 62.8185 47.1496 62.9488C48.7058 63.0261 50.9472 63.7147 51.7991 64.5895C51.5447 65.096 50.866 65.5975 50.1745 65.9505C49.158 66.4692 48.7871 66.2597 47.575 66.2923L47.3762 67.0826C48.5455 67.2983 49.6411 67.9625 50.3369 68.878C50.6394 69.2757 50.6394 69.472 50.8863 69.8717C51.2765 69.8606 51.4753 69.7171 51.7874 69.6185C51.5618 68.6481 51.2957 68.2941 51.6495 67.1436C51.8387 66.5282 52.2673 65.7308 52.7034 65.3127C53.2913 65.5131 54.0192 66.6737 54.4317 67.2037L56.3386 66.4509C56.1376 65.6606 54.5204 64.03 54.017 63.6435C45.9995 57.4915 35.7395 62.6599 35.0351 70.5644C34.9336 71.6996 34.9998 74.1083 35.6016 74.9363V74.9373Z" fill="white"/>
<path fill-rule="evenodd" clip-rule="evenodd" d="M45.8659 76.092C44.7158 76.0014 44.4069 75.5762 43.7046 75.385L43.2728 76.0848C43.4941 76.3554 45.5548 77.5384 45.1882 80.117C43.1991 80.0549 40.621 78.64 39.3426 77.2048C39.132 76.9688 39.0305 76.7501 38.6906 76.5049L36.8169 77.3044C37.0606 78.0195 38.7024 79.4263 39.24 79.8434C42.3974 82.2988 47.1838 82.9193 51.0199 81.2878C55.5871 79.3449 58.8472 74.8601 57.4694 68.9177C56.9724 69.0011 55.9634 69.4355 55.5027 69.6745C55.46 70.2543 56.0788 72.8186 55.1628 74.198C54.3857 74.084 53.5381 73.4524 53.1245 73.0373C52.2384 72.1483 52.4201 71.6824 52.1689 71.007L51.2871 71.0701C51.0733 73.6253 50.9686 73.5612 49.4872 75.0666C49.6283 75.3301 49.8313 75.4867 50.0333 75.6963C50.7345 75.4888 50.9675 74.9944 52.1807 74.8805C52.9182 74.8113 54.1901 74.9242 54.7374 75.2701C54.4713 76.3707 52.5858 78.1436 51.6163 78.7143C50.0857 79.6155 48.6086 80.1973 46.3436 80.1963C46.4901 77.3309 48.0057 77.101 48.6951 76.4836L48.4322 75.7604C47.4798 75.9221 47.172 76.1937 45.868 76.092H45.8659Z" fill="white"/>
<path fill-rule="evenodd" clip-rule="evenodd" d="M69.8877 39.5981L72.9339 39.6103C72.4433 35.803 72.0222 31.9376 71.4087 28.1506C70.9138 31.9681 70.4285 35.7857 69.8877 39.5981Z" fill="white"/>
<path fill-rule="evenodd" clip-rule="evenodd" d="M28.2641 20.6113C28.3058 20.2004 28.3614 19.6155 28.5474 19.3276C28.7152 19.5952 28.7943 20.2014 28.8103 20.6195L28.2641 20.6113ZM23.5654 22.0964L24.7401 22.1147L24.7871 20.7344C25.018 20.9104 24.8876 20.769 25.0469 21.0274L25.5193 22.0995H27.9381L28.1444 21.3864L28.867 21.36L29.1395 22.0995L30.3324 22.1127C30.264 21.6773 29.6462 18.7824 29.2945 18.6838L27.6292 18.6787L26.8116 21.7475C26.5593 21.6438 26.5187 21.418 26.3616 21.1026C25.5952 19.5677 26.368 20.0966 26.6651 18.6777L25.422 18.6807L24.9699 19.7915C24.6642 19.4477 24.8823 19.1476 24.7476 18.6766L23.5996 18.6736L23.5654 22.0964Z" fill="#070B15"/>
<path fill-rule="evenodd" clip-rule="evenodd" d="M14.171 19.6298C14.3292 19.0927 14.1817 19.5026 14.3538 19.3063L14.5184 20.6154L14.0374 20.6053L14.171 19.6298ZM9.29062 22.067L10.4706 22.071L10.4685 20.6276C10.8105 20.9053 11.0852 21.6733 11.2509 22.0466L13.6868 22.0853L13.8931 21.3651L14.6595 21.3427L14.8519 22.0426L16.0832 22.0985L15.2036 18.6482L13.4164 18.6573L12.54 21.7506C12.2492 21.6164 11.7554 20.5524 11.7554 20.2411C11.7554 19.7854 12.354 19.1192 12.3636 18.6604L11.2509 18.6523C11.0927 18.8313 10.9976 19.0388 10.8822 19.3022L10.6363 19.7885C10.507 19.9543 10.6128 19.8495 10.4578 19.9675L10.4845 18.6614L9.34406 18.6502L9.28955 22.069L9.29062 22.067Z" fill="#070B15"/>
<path fill-rule="evenodd" clip-rule="evenodd" d="M53.1963 22.1005L54.3688 22.1595L54.3742 20.0824C54.6863 20.4456 54.9909 21.4973 55.3746 22.13L56.606 22.1473L56.6284 18.7642L55.4398 18.7397L55.5232 20.3988L55.2645 20.0356C55.1384 19.7763 55.0176 19.2016 54.7333 18.7448L53.2048 18.7428L53.1963 22.0995V22.1005Z" fill="#070B15"/>
<path fill-rule="evenodd" clip-rule="evenodd" d="M68.0854 19.5503C68.3462 20.005 68.5343 21.4413 67.7786 21.4159C67.1266 21.3945 67.1245 20.0864 67.4879 19.5442L68.0864 19.5503H68.0854ZM66.8797 18.8536C66.3474 19.0743 66.2159 19.1475 66.0813 19.7802C65.5757 22.1645 67.6546 22.6182 68.8058 22.0303C70.2862 21.2745 69.7752 17.6492 66.8797 18.8536Z" fill="#070B15"/>
<path fill-rule="evenodd" clip-rule="evenodd" d="M63.3537 20.4434C63.3537 20.1107 63.311 19.7395 63.5643 19.5818C64.2109 19.179 64.7945 20.0629 64.1564 21.3812L63.5739 21.3731C63.3537 20.9977 63.3548 20.9927 63.3527 20.4434H63.3537ZM63.0641 18.7782C61.2641 19.3204 61.8231 23.086 64.6919 22.0963C66.1894 21.5796 66.1948 17.8373 63.0641 18.7782Z" fill="#070B15"/>
<path fill-rule="evenodd" clip-rule="evenodd" d="M74.3459 20.7903C74.6451 20.7506 74.8012 20.7944 74.9797 20.8992C75.078 21.3813 74.8514 21.5268 74.3405 21.4912L74.3459 20.7903ZM74.3448 19.4751C74.8429 19.3937 74.953 19.527 74.9808 20.0081L74.3309 20.0864L74.3459 19.4761L74.3448 19.4751ZM73.1968 22.1737C74.0338 22.1981 76.3575 22.4321 76.2869 21.1646C76.2613 20.7069 75.9759 20.6377 75.6071 20.4435C75.8604 20.0773 76.0892 20.3275 76.1693 19.7294C76.2303 19.2737 76.0293 19.0316 75.7055 18.8943C75.1892 18.6746 73.8285 18.7417 73.1904 18.7783L73.1968 22.1747V22.1737Z" fill="#070B15"/>
<path fill-rule="evenodd" clip-rule="evenodd" d="M17.6042 20.0843C17.4994 19.2807 17.6769 19.2492 18.3011 19.5045L18.2893 19.951C18.0617 20.07 17.9099 20.1423 17.6042 20.0843ZM16.4146 22.0831L17.5614 22.0902C17.5978 21.663 17.461 20.9621 17.6448 20.6732C17.8939 21.0323 18.1001 21.6853 18.2818 22.0739L19.4961 22.0902C19.3635 21.4717 19.0151 21.1778 18.7831 20.6458C18.9349 20.5115 18.7778 20.6437 18.983 20.4993C19.8841 19.8605 19.4533 19.0976 19.1637 18.9013C18.6902 18.5799 17.1221 18.6622 16.422 18.6704L16.4156 22.082L16.4146 22.0831Z" fill="#070B15"/>
<path fill-rule="evenodd" clip-rule="evenodd" d="M40.2632 22.1116L41.4881 22.1136L41.4614 20.7242C41.8868 21.0395 41.8248 21.4535 42.2684 22.1258L43.4719 22.136C43.4249 21.5898 42.8616 20.9398 42.7301 20.478C42.5901 19.9867 43.2432 19.3632 43.3319 18.7L42.1273 18.7111C41.9563 19.1363 41.782 19.8748 41.4154 20.0131L41.5127 18.7213L40.2931 18.701L40.2653 22.1116H40.2632Z" fill="#070B15"/>
<path fill-rule="evenodd" clip-rule="evenodd" d="M38.1988 19.401L38.4094 20.644L37.8739 20.6338C37.8696 20.1669 37.969 19.6756 38.1988 19.401ZM36.3219 22.1179L37.5489 22.1097L37.7595 21.3946L38.5291 21.3967L38.7289 22.127L39.9325 22.1219L39.0699 18.7062L37.3106 18.696C36.9589 19.168 36.4394 21.4536 36.3208 22.1169L36.3219 22.1179Z" fill="#070B15"/>
<path fill-rule="evenodd" clip-rule="evenodd" d="M51.049 19.4292L51.4305 20.6549L50.8512 20.6722L51.049 19.4292ZM49.3228 22.1329L50.4579 22.1502L50.7443 21.4209L51.4851 21.4138L51.7084 22.1431L52.8853 22.1563L52.0483 18.7406L50.2452 18.7192C50.0539 19.0102 49.3794 21.7027 49.3238 22.1319L49.3228 22.1329Z" fill="#070B15"/>
<path fill-rule="evenodd" clip-rule="evenodd" d="M21.3829 19.3225C21.4673 19.4161 21.4887 19.3174 21.5881 19.6602C21.617 19.7599 21.6234 19.9074 21.6415 20.0305C21.6779 20.2675 21.7345 20.3753 21.742 20.6001L21.1584 20.6154L21.3818 19.3225H21.3829ZM19.6235 22.0964L20.8517 22.0791L21.0526 21.366L21.8136 21.3599C21.9611 21.7038 21.8532 21.9326 22.1589 22.0649C22.4336 22.1839 22.9744 22.1127 23.2459 22.0282L22.3801 18.7081L20.5299 18.6807L19.6235 22.0964Z" fill="#070B15"/>
<path fill-rule="evenodd" clip-rule="evenodd" d="M78.1424 20.7109C77.8741 20.3661 78.0462 19.8137 78.2493 19.4242C78.2963 19.4882 78.3102 19.4638 78.3594 19.6388C78.742 20.9937 78.4043 20.6712 78.1424 20.7109ZM76.4087 22.1716L77.6219 22.1858C77.9382 21.4473 77.5107 21.4331 78.5977 21.4534L78.8339 22.2021L80.0075 22.1919L79.1706 18.7691L77.3482 18.762L76.4087 22.1726V22.1716Z" fill="#070B15"/>
<path fill-rule="evenodd" clip-rule="evenodd" d="M64.0956 54.2793C63.6937 54.0982 63.9438 54.3332 63.4297 53.5622C63.1785 53.1858 63.0566 53.0871 62.9017 52.7504L61.8691 52.7453L61.8734 55.919L62.814 55.922L62.8536 54.3149C63.8636 54.8692 63.2982 56.1855 65.0447 55.8915L65.064 52.7535C63.7129 52.6457 64.0379 52.9661 64.0945 54.2793H64.0956Z" fill="#070B15"/>
<path fill-rule="evenodd" clip-rule="evenodd" d="M59.2376 53.502C60.1761 52.9354 60.6977 54.7033 59.9591 55.1254C58.9084 55.7256 58.4979 53.9496 59.2376 53.502ZM58.9266 52.7798C57.009 53.4227 57.6728 56.6126 60.2423 55.9005C62.1224 55.3797 61.4843 51.9223 58.9266 52.7798Z" fill="#070B15"/>
<path fill-rule="evenodd" clip-rule="evenodd" d="M34.5808 20.2928L34.5637 19.475L35.1548 19.5248L35.2072 20.1595C34.9881 20.2592 34.894 20.3233 34.5808 20.2928ZM33.3848 22.1085L34.5039 22.1288L34.5958 21.1096C34.8096 21.0526 36.9056 21.016 36.3102 19.3661C35.9971 18.4985 34.4461 18.6307 33.4297 18.6877L33.3848 22.1095V22.1085Z" fill="#070B15"/>
<path fill-rule="evenodd" clip-rule="evenodd" d="M41.4045 53.5164C42.4295 52.8542 42.7256 54.7116 42.1527 55.0737C41.103 55.7359 40.6274 54.0179 41.4045 53.5164ZM41.3093 52.7098C39.3031 53.0556 39.5243 56.2069 42.1206 55.9211C44.0542 55.7085 44.0691 52.2337 41.3093 52.7098Z" fill="#070B15"/>
<path fill-rule="evenodd" clip-rule="evenodd" d="M45.2481 21.2917C44.4122 21.6437 44.4037 21.2795 43.7153 21.13L43.7271 21.8807C45.8466 22.964 47.2661 21.1076 45.9086 20.2928C45.1658 19.8463 44.9018 20.185 44.9082 19.5279C45.4512 19.2583 45.899 19.5666 46.3437 19.6784L46.3063 18.9084C45.4533 18.5392 43.9398 18.4568 43.6726 19.3794C43.3038 20.6529 45.1102 20.4017 45.247 21.2907L45.2481 21.2917Z" fill="#070B15"/>
<path fill-rule="evenodd" clip-rule="evenodd" d="M31.2192 53.6701C31.4586 53.9671 31.4746 54.2763 31.5099 54.6639L30.8611 54.6435L31.2192 53.6701ZM29.416 55.854C30.626 55.8672 30.2508 56.0666 30.6848 55.3586L31.7536 55.3464C32.2891 56.0462 31.6767 55.8387 33.0042 55.8865C32.9016 55.3332 32.0807 53.075 31.7536 52.7017L30.6848 52.6885L29.416 55.854Z" fill="#070B15"/>
<path fill-rule="evenodd" clip-rule="evenodd" d="M35.2135 54.9261C34.91 55.8019 34.3424 55.0563 34.1051 54.7827L33.2329 54.802C33.2992 56.2312 35.4433 56.1813 36.0226 55.4296C36.4545 54.8691 36.1798 54.3036 35.765 54.0595C35.237 53.7482 34.4792 53.8804 34.3392 53.4003C34.6363 53.0982 34.7047 53.1542 35.05 53.4156C35.4946 53.7512 35.4337 53.6241 36.0686 53.618C36.0846 52.2773 33.9394 52.4869 33.5226 53.0494C32.5691 54.3341 34.8896 54.4511 35.2146 54.9251L35.2135 54.9261Z" fill="#070B15"/>
<path fill-rule="evenodd" clip-rule="evenodd" d="M50.8553 53.6933C51.1663 53.9079 51.1973 54.1896 51.2668 54.6891L50.6083 54.6779L50.8553 53.6922V53.6933ZM49.2135 55.9026L50.138 55.9077L50.3903 55.3787L51.4848 55.3737L51.7242 55.9067L52.745 55.9026C52.7108 55.6035 51.6804 53.0646 51.4966 52.7239L50.4576 52.7178C50.2759 52.9761 49.2081 55.4642 49.2124 55.9036L49.2135 55.9026Z" fill="#070B15"/>
<path fill-rule="evenodd" clip-rule="evenodd" d="M38.5987 55.028C38.4661 55.2029 38.3785 55.3809 37.999 55.2873C37.7308 55.2212 37.6025 54.9486 37.4186 54.7798L36.6191 54.8042C36.7207 56.2933 38.7697 56.1255 39.3362 55.5325C39.8011 55.0453 39.6547 54.3678 39.1588 54.0779C38.5409 53.7168 37.6976 53.9365 37.7639 53.2977C38.6607 52.9692 37.7404 53.6598 39.4751 53.6151C39.3992 52.25 37.2316 52.485 36.8254 53.1441C35.9992 54.4889 38.3796 54.3058 38.5987 55.0269V55.028Z" fill="#070B15"/>
<path fill-rule="evenodd" clip-rule="evenodd" d="M59.0933 22.1555L60.3246 22.1453L60.346 20.8331L61.6446 20.8291L61.666 20.0753C60.2263 19.9878 60.4646 20.3225 60.3289 19.7315C60.6217 19.3033 60.5448 19.6105 61.6564 19.5016L61.6714 18.754L59.1349 18.7336L59.0933 22.1555Z" fill="#070B15"/>
<path fill-rule="evenodd" clip-rule="evenodd" d="M47.0718 54.8011L46.2969 54.6435C45.8876 55.1968 45.7443 55.3392 45.0923 55.0514C44.9566 54.7086 44.8411 53.9487 45.1222 53.608C45.5509 53.0882 46.0094 53.5836 46.2905 53.8185L47.0847 53.6517C46.779 52.2683 43.7701 52.0527 43.9337 54.5224C44.079 56.7135 47.3636 56.096 47.0718 54.8011Z" fill="#070B15"/>
<path fill-rule="evenodd" clip-rule="evenodd" d="M69.8022 19.5281L70.6263 19.581V22.1056C71.0036 22.2368 71.4975 22.2012 71.9036 22.1453C71.9197 19.1232 71.6663 19.6542 72.8079 19.5484L72.7876 18.7611L69.8418 18.752L69.8022 19.5291V19.5281Z" fill="#070B15"/>
<path fill-rule="evenodd" clip-rule="evenodd" d="M46.6592 19.4863L47.5143 19.5544L47.5196 22.1391L48.7702 22.1188L48.7755 19.5717L49.6466 19.4263L49.6381 18.7173L46.6645 18.7214L46.6592 19.4863Z" fill="#070B15"/>
<path fill-rule="evenodd" clip-rule="evenodd" d="M30.6592 22.1075L32.9188 22.0994L32.9284 21.3548C31.9279 21.2337 31.8745 21.6243 31.8937 20.5522C31.9044 19.9368 31.9215 19.3153 31.8905 18.7019L30.6752 18.6887L30.6592 22.1075Z" fill="#070B15"/>
<path fill-rule="evenodd" clip-rule="evenodd" d="M83.0366 22.1798L85.293 22.192L85.2834 21.4078L84.2979 21.4037L84.2915 18.7824L83.104 18.7661L83.0366 22.1798Z" fill="#070B15"/>
<path fill-rule="evenodd" clip-rule="evenodd" d="M80.3613 22.1737L82.607 22.1849V21.4108L81.5948 21.3681C81.582 20.6419 81.7252 19.3704 81.5275 18.7682L80.4287 18.7651L80.3613 22.1748V22.1737Z" fill="#070B15"/>
<path fill-rule="evenodd" clip-rule="evenodd" d="M52.5391 53.4594L53.5577 53.5102L53.5908 55.8915L54.5784 55.9108L54.618 53.5265L55.7339 53.4797L55.7296 52.7687L52.5594 52.7219L52.5391 53.4594Z" fill="#070B15"/>
<path fill-rule="evenodd" clip-rule="evenodd" d="M56.1846 55.9017L57.2321 55.9027V52.7443L56.1867 52.7341L56.1846 55.9017Z" fill="#070B15"/>
<path fill-rule="evenodd" clip-rule="evenodd" d="M47.7173 55.8753C48.9732 56.0085 48.7413 55.8997 48.7338 54.8255C48.7295 54.206 48.7926 53.316 48.7081 52.7352L47.7387 52.7209L47.7184 55.8753H47.7173Z" fill="#070B15"/>
<path fill-rule="evenodd" clip-rule="evenodd" d="M59.2377 53.502C58.498 53.9496 58.9084 55.7246 59.9591 55.1254C60.6977 54.7033 60.1761 52.9354 59.2377 53.502Z" fill="white"/>
<path fill-rule="evenodd" clip-rule="evenodd" d="M41.4044 53.5163C40.6273 54.0178 41.103 55.7348 42.1526 55.0736C42.7255 54.7125 42.4294 52.8552 41.4044 53.5163Z" fill="white"/>
<path fill-rule="evenodd" clip-rule="evenodd" d="M63.3537 20.4436C63.3558 20.9929 63.3537 20.9979 63.5749 21.3733L64.1575 21.3814C64.7966 20.0631 64.212 19.1792 63.5653 19.582C63.312 19.7397 63.3537 20.111 63.3547 20.4436H63.3537Z" fill="white"/>
<path fill-rule="evenodd" clip-rule="evenodd" d="M68.0852 19.5503L67.4866 19.5442C67.1243 20.0864 67.1254 21.3934 67.7774 21.4158C68.5331 21.4412 68.346 20.006 68.0841 19.5503H68.0852Z" fill="white"/>
<path fill-rule="evenodd" clip-rule="evenodd" d="M78.1426 20.7111C78.4044 20.6714 78.7422 20.9938 78.3595 19.6389C78.3104 19.464 78.2965 19.4884 78.2494 19.4243C78.0464 19.8139 77.8743 20.3662 78.1426 20.7111Z" fill="#F1F0F8"/>
<path fill-rule="evenodd" clip-rule="evenodd" d="M28.2642 20.6113L28.8103 20.6195C28.7943 20.2024 28.7152 19.5952 28.5474 19.3276C28.3625 19.6155 28.3058 20.2004 28.2642 20.6113Z" fill="#D9DDEB"/>
<path fill-rule="evenodd" clip-rule="evenodd" d="M34.5811 20.2929C34.8953 20.3224 34.9894 20.2594 35.2074 20.1597L35.155 19.5249L34.564 19.4751L34.5811 20.2929Z" fill="#F1F0F8"/>
<path fill-rule="evenodd" clip-rule="evenodd" d="M17.604 20.0845C17.9096 20.1425 18.0614 20.0703 18.2891 19.9512L18.3009 19.5047C17.6756 19.2494 17.4992 19.2819 17.604 20.0845Z" fill="#F1F0F8"/>
<path fill-rule="evenodd" clip-rule="evenodd" d="M21.1592 20.6154L21.7428 20.6001C21.7353 20.3753 21.6786 20.2675 21.6423 20.0305C21.6231 19.9074 21.6177 19.7599 21.5889 19.6602C21.4895 19.3174 21.4681 19.4161 21.3836 19.3225L21.1602 20.6154H21.1592Z" fill="#F1F0F8"/>
<path fill-rule="evenodd" clip-rule="evenodd" d="M38.199 19.4009C37.9692 19.6755 37.8709 20.1668 37.8741 20.6337L38.4096 20.6439L38.199 19.4009Z" fill="#F1F0F8"/>
<path fill-rule="evenodd" clip-rule="evenodd" d="M74.3394 21.4912C74.8503 21.5268 75.0769 21.3813 74.9785 20.8992C74.8011 20.7944 74.645 20.7507 74.3447 20.7903L74.3394 21.4912Z" fill="#F1F0F8"/>
<path fill-rule="evenodd" clip-rule="evenodd" d="M50.6084 54.678L51.2668 54.6892C51.1973 54.1898 51.1674 53.908 50.8553 53.6934L50.6084 54.679V54.678Z" fill="#F1F0F8"/>
<path fill-rule="evenodd" clip-rule="evenodd" d="M14.0386 20.6051L14.5196 20.6153L14.355 19.3062C14.1829 19.5025 14.3304 19.0925 14.1722 19.6296L14.0386 20.6051Z" fill="#F1F0F8"/>
<path fill-rule="evenodd" clip-rule="evenodd" d="M30.8604 54.6434L31.5092 54.6637C31.4739 54.2762 31.4578 53.9669 31.2184 53.6699L30.8604 54.6434Z" fill="#F1F0F8"/>
<path fill-rule="evenodd" clip-rule="evenodd" d="M50.8511 20.6722L51.4304 20.6549L51.0488 19.4292L50.8511 20.6722Z" fill="#F1F0F8"/>
<path fill-rule="evenodd" clip-rule="evenodd" d="M74.3297 20.0865L74.9795 20.0082C74.9518 19.5271 74.8417 19.3938 74.3436 19.4752L74.3286 20.0855L74.3297 20.0865Z" fill="#F1F0F8"/>
</g>
<defs>
<clipPath id="clip0_18_1505">
<rect width="92" height="99" fill="white"/>
</clipPath>
</defs>
</svg>
